<svg xmlns="http://www.w3.org/2000/svg" viewBox="0 0 3325 1948"><defs><style>.cls-1{fill:#111827;}.cls-2{opacity:0.61;}.cls-3,.cls-5{fill:#00a99d;}.cls-17,.cls-18,.cls-19,.cls-4,.cls-6{fill:#fff;}.cls-5{opacity:0.45;}.cls-13,.cls-20,.cls-21,.cls-22,.cls-24,.cls-25,.cls-6,.cls-7,.cls-8{stroke:#fff;}.cls-10,.cls-11,.cls-13,.cls-14,.cls-15,.cls-20,.cls-21,.cls-22,.cls-24,.cls-25,.cls-6,.cls-7,.cls-8,.cls-9{stroke-miterlimit:10;}.cls-10,.cls-11,.cls-13,.cls-14,.cls-20,.cls-21,.cls-22,.cls-24,.cls-25,.cls-7,.cls-8,.cls-9{fill:none;}.cls-10,.cls-7{stroke-width:3px;}.cls-10,.cls-11,.cls-14,.cls-15,.cls-9{stroke:#00a99d;}.cls-11,.cls-9{stroke-width:5px;}.cls-11,.cls-14{stroke-linecap:round;}.cls-11{stroke-dasharray:5 15 15 15;}.cls-12{opacity:0.8;}.cls-13,.cls-14{stroke-width:7px;}.cls-15{fill:#0071bc;stroke-width:6px;}.cls-16{opacity:0.72;}.cls-17{opacity:0.9;}.cls-18{opacity:0.69;}.cls-19{opacity:0.37;}.cls-20,.cls-21,.cls-24,.cls-25{stroke-width:0.75px;}.cls-21{stroke-dasharray:12;}.cls-22{stroke-width:2px;}.cls-23,.cls-25{opacity:0.73;}.cls-24,.cls-25{stroke-dasharray:3 3 3 3;}</style></defs><title>EV3-IoT</title><g id="hintergrund"><rect class="cls-1" width="3325" height="1948"/></g><g id="IOT"><g class="cls-2"><rect class="cls-3" x="391.9415" y="566.8524" width="163.0585" height="124.7031" rx="7" ry="7"/></g><path class="cls-4" d="M450.6409,628.8833a3.6845,3.6845,0,0,0,5.2106,5.2106,25.4642,25.4642,0,0,1,35.9684,0,3.6795,3.6795,0,0,0,5.1965-5.2106A32.8133,32.8133,0,0,0,450.6409,628.8833Z" transform="translate(0 0)"/><path class="cls-4" d="M460.5846,638.8269a3.6844,3.6844,0,0,0,5.21,5.2106,11.3588,11.3588,0,0,1,16.0671,0,3.6745,3.6745,0,0,0,5.1965-5.1965A18.7207,18.7207,0,0,0,460.5846,638.8269Z" transform="translate(0 0)"/><circle class="cls-4" cx="473.8287" cy="652.057" r="4.9016"/><path class="cls-4" d="M507.1145,618.7712a47.1477,47.1477,0,0,0-66.5717,0,3.6844,3.6844,0,0,0,5.2106,5.2105,39.7474,39.7474,0,0,1,56.1646,0,3.6794,3.6794,0,0,0,5.1965-5.2105Z" transform="translate(0 0)"/><path class="cls-3" d="M1846.72,284.5732c9.8781,5.2683,17.4512,10.0182,17.4512,23.3452S1851.766,331,1836.464,331h-92.7573C1728.4047,331,1716,320.1963,1716,306.8692s11.5244-24.93,31.939-22.9546c0,0,9.8781-23.7073,35.561-17.1219l.4678-.2606C1789.0659,256.7973,1800.6489,250,1814.122,250c18.1849,0,32.9268,12.3831,32.9268,27.6585a23.5141,23.5141,0,0,1-.7715,5.9794Z" transform="translate(0 0)"/><g class="cls-2"><rect class="cls-3" x="1929.7379" y="1176" width="338.3251" height="186.323" rx="7" ry="7"/></g><rect class="cls-3" x="1947.1355" y="1190.2109" width="22.6431" height="22.6431"/><rect class="cls-3" x="1947.1355" y="1217.9671" width="22.6431" height="22.6431"/><rect class="cls-5" x="1972.7004" y="1217.9671" width="22.6431" height="22.6431"/><rect class="cls-3" x="1972.7004" y="1190.2109" width="22.6431" height="22.6431"/><rect class="cls-3" x="2064.9007" y="1196.8161" width="187.3224" height="8.2642"/><rect class="cls-3" x="2064.9007" y="1213.3445" width="165.2845" height="8.2642"/><rect class="cls-3" x="1947.1355" y="1262.9299" width="72.312" height="8.2642"/><rect class="cls-3" x="1947.1355" y="1277.3923" width="48.208" height="8.2642"/><rect class="cls-3" x="2064.9007" y="1229.873" width="120.52" height="8.2642"/><polygon class="cls-3" points="2104.844 1341.44 2247.402 1341.44 2247.402 1267.223 2216.479 1298.147 2201.481 1283.149 2182.154 1302.476 2162.672 1295.364 2104.844 1341.44"/><g class="cls-2"><rect class="cls-3" x="1541.7959" y="1140.2499" width="342.2041" height="261.3443" rx="7" ry="7"/></g><g class="cls-2"><path class="cls-6" d="M1818.3627,1182.3487H1609.059a10.4731,10.4731,0,0,0-10.4732,10.4732v134.12a10.4731,10.4731,0,0,0,10.4732,10.4732h209.3037a10.4731,10.4731,0,0,0,10.4732-10.4732v-134.12A10.4731,10.4731,0,0,0,1818.3627,1182.3487Zm-.0995,144.4937H1606.809V1190.5719h211.4542Z" transform="translate(0 0)"/><path class="cls-7" d="M1582.3816,1346.7815h260.3091a2.5917,2.5917,0,0,1,2.5917,2.5917v1.8537a9.6516,9.6516,0,0,1-9.6516,9.6516H1589.43a9.64,9.64,0,0,1-9.64-9.64v-1.8651a2.5917,2.5917,0,0,1,2.5917-2.5917Z"/><rect class="cls-8" x="1695.317" y="1350.9601" width="34.4382" height="5.7397" rx="2.3432" ry="2.3432"/></g><path class="cls-4" d="M1219.23,1799.1758V1698.0674h18.2246v101.1084Z" transform="translate(0 0)"/><path class="cls-4" d="M1253.0566,1799.1758V1698.0674h12.8575l24.5908,57.6689v-57.6689h15.2285v101.1084H1293.5l-24.7148-60.416v60.416Z" transform="translate(0 0)"/><path class="cls-4" d="M1331.1982,1799.1758v-87.5029h-16.1025v-13.6055h50.43v13.6055h-15.8535v87.5029Z" transform="translate(0 0)"/><path class="cls-4" d="M1374.7607,1799.1758V1698.0674h42.44v12.9814h-23.9658v29.084h18.8486V1752.99h-18.8486v33.4532h24.2158v12.7324Z" transform="translate(0 0)"/><path class="cls-4" d="M1428.1855,1799.1758V1698.0674h24.2159a53.4129,53.4129,0,0,1,17.289,2.4336,19.8733,19.8733,0,0,1,10.7344,8.3008q3.6811,5.87,3.6826,15.9775a49.0089,49.0089,0,0,1-1.123,10.9853,20.9057,20.9057,0,0,1-3.8076,8.3008,17.16,17.16,0,0,1-7.4268,5.3047l14.1055,49.8057h-18.4746l-12.2325-46.3106H1446.66v46.3106Zm18.4747-57.919h5.7412a19.5989,19.5989,0,0,0,8.5507-1.5605,9.1109,9.1109,0,0,0,4.5567-4.9932,23.98,23.98,0,0,0,1.373-8.8q0-7.6128-2.8086-11.4219-2.81-3.8056-10.6728-3.8066h-6.74Z" transform="translate(0 0)"/><path class="cls-4" d="M1497.9619,1799.1758V1698.0674h12.8574l24.5909,57.6689v-57.6689h15.2285v101.1084h-12.2334L1513.69,1738.76v60.416Z" transform="translate(0 0)"/><path class="cls-4" d="M1565.9912,1799.1758V1698.0674h42.44v12.9814h-23.9658v29.084h18.8487V1752.99h-18.8487v33.4532h24.2158v12.7324Z" transform="translate(0 0)"/><path class="cls-4" d="M1629.5273,1799.1758v-87.5029h-16.1025v-13.6055h50.43v13.6055H1648.001v87.5029Z" transform="translate(0 0)"/><path class="cls-7" d="M1730.8848,1800.5488q-10.7373,0-17.1016-3.9941a22.07,22.07,0,0,1-9.1123-11.4844,51.4973,51.4973,0,0,1-2.7461-17.7246v-37.8223a49.9054,49.9054,0,0,1,2.7461-17.538,21.5063,21.5063,0,0,1,9.1123-11.1719q6.3661-3.8686,17.1016-3.87,10.982,0,17.2881,3.87a21.9155,21.9155,0,0,1,9.1123,11.1719,48.9139,48.9139,0,0,1,2.8086,17.538V1767.47a49.5436,49.5436,0,0,1-2.8086,17.5381,22.8311,22.8311,0,0,1-9.1123,11.4844Q1741.8681,1800.5469,1730.8848,1800.5488Zm0-13.6064q4.6156,0,6.8027-1.9971a10.0493,10.0493,0,0,0,2.9336-5.4922,36.3545,36.3545,0,0,0,.749-7.6142v-46.56a35.2577,35.2577,0,0,0-.749-7.6143,9.6539,9.6539,0,0,0-2.9336-5.3056q-2.1855-1.9336-6.8027-1.9346-4.3711,0-6.6162,1.9346a9.47,9.47,0,0,0-2.9952,5.3056,35.1948,35.1948,0,0,0-.749,7.6143v46.56a39.4315,39.4315,0,0,0,.6865,7.6142,9.5385,9.5385,0,0,0,2.9327,5.4922Q1726.3906,1786.9433,1730.8848,1786.9424Z" transform="translate(0 0)"/><path class="cls-7" d="M1773.6982,1799.1758V1698.0674h41.5674v12.7314h-23.0927v29.459h18.8486v12.8574h-18.8486v46.0606Z" transform="translate(0 0)"/><path class="cls-7" d="M1865.32,1799.1758v-87.5029h-16.1025v-13.6055h50.43v13.6055h-15.8536v87.5029Z" transform="translate(0 0)"/><path class="cls-7" d="M1909.1328,1799.1758V1698.0674h18.35v42.3154h20.5957v-42.3154h18.4746v101.1084h-18.4746v-45.6865h-20.5957v45.6865Z" transform="translate(0 0)"/><path class="cls-7" d="M1982.53,1799.1758V1698.0674h18.2246v101.1084Z" transform="translate(0 0)"/><path class="cls-7" d="M2016.3574,1799.1758V1698.0674h12.8574l24.5909,57.6689v-57.6689h15.2285v101.1084h-12.2334l-24.7149-60.416v60.416Z" transform="translate(0 0)"/><path class="cls-7" d="M2109.7266,1800.5488q-9.9888,0-15.8526-4.2441a23.2858,23.2858,0,0,1-8.4258-12.0459,59.2114,59.2114,0,0,1-2.5595-18.4111v-33.9532a62.1554,62.1554,0,0,1,2.497-18.7236,21.8467,21.8467,0,0,1,8.8-12.0459q6.3018-4.1807,17.4131-4.1816,10.3595,0,16.4776,3.4951a19.9935,19.9935,0,0,1,8.8,10.0488,42.0145,42.0145,0,0,1,2.6836,15.915v5.2432H2121.959v-5.7422a44.0826,44.0826,0,0,0-.6865-8.3633,9.1637,9.1637,0,0,0-2.7461-5.3056q-2.06-1.8077-6.6778-1.81-4.8691,0-7.0527,2.3711a11.3619,11.3619,0,0,0-2.7461,6.2422,59.229,59.229,0,0,0-.5615,8.4873v42.3164a41.7474,41.7474,0,0,0,.873,9.1123,10.6862,10.6862,0,0,0,3.2461,5.9287q2.37,2.06,6.74,2.06,4.4942,0,6.8652-2.2461a12.1836,12.1836,0,0,0,3.3086-6.2412,42.0364,42.0364,0,0,0,.9355-9.4873v-9.4864h-10.8593v-11.6093H2140.06v51.3037H2128.2l-1.3731-9.9863a19.288,19.288,0,0,1-6.0537,8.1767Q2116.7159,1800.5494,2109.7266,1800.5488Z" transform="translate(0 0)"/><path class="cls-7" d="M2179.6279,1800.5488q-9.1141,0-15.2295-3.5576a22.3952,22.3952,0,0,1-9.2363-10.4228,44.7171,44.7171,0,0,1-3.4951-16.8516l15.8525-3.12a48.8657,48.8657,0,0,0,1.4356,10.36,14.9919,14.9919,0,0,0,3.62,6.9278,8.6854,8.6854,0,0,0,6.4287,2.4336q4.4926,0,6.3662-2.6836a11.6153,11.6153,0,0,0,1.8721-6.8028,18.4036,18.4036,0,0,0-2.9961-10.86,46.8687,46.8687,0,0,0-7.9883-8.4873l-12.7324-11.2344a38.2113,38.2113,0,0,1-8.5508-10.2988q-3.1832-5.6778-3.1826-14.043,0-11.9824,6.99-18.4736,6.9888-6.4893,19.0977-6.4912a28.3679,28.3679,0,0,1,11.8584,2.1845,18.8742,18.8742,0,0,1,7.5517,6.0537,27.318,27.318,0,0,1,4.1817,8.8008,52.0032,52.0032,0,0,1,1.748,10.4229l-15.7285,2.7461a53.8266,53.8266,0,0,0-1.0605-8.4883,11.8215,11.8215,0,0,0-2.8711-5.8672q-2.06-2.12-6.0537-2.1211a7.6563,7.6563,0,0,0-6.3038,2.6836,10.2322,10.2322,0,0,0-2.1845,6.6777,15.323,15.323,0,0,0,2.122,8.4258,32.8678,32.8678,0,0,0,6.1163,6.8027l12.6074,11.1094a52.2962,52.2962,0,0,1,10.6728,12.2959q4.43,7.0533,4.4307,17.0391a25.6149,25.6149,0,0,1-3.1826,12.8564,22.8153,22.8153,0,0,1-8.8623,8.8008A26.7558,26.7558,0,0,1,2179.6279,1800.5488Z" transform="translate(0 0)"/><path class="cls-4" d="M280.4956,1418.74v-71.4326h13.0523v62.4375h17.2846v8.9951Z" transform="translate(0 0)"/><path class="cls-4" d="M317.27,1418.74v-71.4326h29.9844v9.1709H330.3218v20.5488h13.3164v9.0831H330.3218v23.6347H347.43v8.9951Z" transform="translate(0 0)"/><path class="cls-4" d="M372.9165,1419.71q-7.0561,0-11.2-2.9981a16.4563,16.4563,0,0,1-5.9531-8.5107,41.8463,41.8463,0,0,1-1.8076-13.0078v-23.9873a43.9186,43.9186,0,0,1,1.7636-13.2276,15.44,15.44,0,0,1,6.2173-8.5107q4.4524-2.9532,12.3023-2.9541,7.3191,0,11.6411,2.4687a14.1276,14.1276,0,0,1,6.2173,7.1,29.6922,29.6922,0,0,1,1.896,11.2442v3.7041H381.5591v-4.0567a31.202,31.202,0,0,0-.4849-5.9091,6.4731,6.4731,0,0,0-1.94-3.7481q-1.4545-1.2774-4.7178-1.2783-3.44,0-4.9829,1.6758a8.0283,8.0283,0,0,0-1.94,4.4091,41.8865,41.8865,0,0,0-.397,5.9971v29.8955a29.4881,29.4881,0,0,0,.6172,6.4385,7.5463,7.5463,0,0,0,2.2929,4.1885,7.0422,7.0422,0,0,0,4.7623,1.4551,6.7934,6.7934,0,0,0,4.8505-1.587,8.6036,8.6036,0,0,0,2.337-4.41,29.6869,29.6869,0,0,0,.6611-6.7022v-6.7021h-7.6724v-8.2022h19.4019V1418.74h-8.3779l-.97-7.0547a13.6336,13.6336,0,0,1-4.2773,5.7764A12.3252,12.3252,0,0,1,372.9165,1419.71Z" transform="translate(0 0)"/><path class="cls-4" d="M423.7124,1419.71q-7.5856,0-12.082-2.8213a15.59,15.59,0,0,1-6.438-8.1143,36.3737,36.3737,0,0,1-1.94-12.5224v-26.7207a35.2529,35.2529,0,0,1,1.94-12.3907,15.1942,15.1942,0,0,1,6.438-7.8935q4.4977-2.732,12.082-2.7334,7.7593,0,12.2139,2.7334a15.4865,15.4865,0,0,1,6.438,7.8935,34.5567,34.5567,0,0,1,1.9843,12.3907V1396.34a34.9987,34.9987,0,0,1-1.9843,12.3907,16.1262,16.1262,0,0,1-6.438,8.1133Q431.4724,1419.7089,423.7124,1419.71Zm0-9.6123a6.9534,6.9534,0,0,0,4.8062-1.4112,7.1,7.1,0,0,0,2.0722-3.88,25.66,25.66,0,0,0,.5293-5.38v-32.8946a24.8752,24.8752,0,0,0-.5293-5.3789,6.8187,6.8187,0,0,0-2.0722-3.748,7.1116,7.1116,0,0,0-4.8062-1.3672,6.9846,6.9846,0,0,0-4.6743,1.3672,6.69,6.69,0,0,0-2.1162,3.748,24.8689,24.8689,0,0,0-.5293,5.3789v32.8946a27.9065,27.9065,0,0,0,.4848,5.38,6.7374,6.7374,0,0,0,2.0728,3.88A6.9778,6.9778,0,0,0,423.7124,1410.0977Z" transform="translate(0 0)"/><path class="cls-4" d="M475.39,1418.74v-71.4326H505.374v9.1709H488.4419v20.5488h13.3164v9.0831H488.4419v23.6347H505.55v8.9951Z" transform="translate(0 0)"/><path class="cls-4" d="M524.0693,1418.74l-14.375-71.4326h11.5528l9.4365,50.5322,8.8188-50.5322H551.32l-14.375,71.4326Z" transform="translate(0 0)"/><path class="cls-4" d="M575.3066,1419.7988q-6.703,0-10.8032-2.5136a14.407,14.407,0,0,1-5.9526-7.1436,28.9568,28.9568,0,0,1-1.8521-10.8027v-2.47h12.0821v2.1172a30.389,30.389,0,0,0,.6171,5.7315,6.3775,6.3775,0,0,0,1.9844,3.6162,6.001,6.001,0,0,0,4.0122,1.2344,5.6886,5.6886,0,0,0,4.1011-1.3223,7.0884,7.0884,0,0,0,1.8521-3.8809,33.204,33.204,0,0,0,.4848-6.0849,17.9827,17.9827,0,0,0-1.72-8.5987q-1.72-3.1288-6.6582-3.3945h-2.0283v-9.7891h1.852q4.8486-.0878,6.7022-2.6015t1.852-8.0694a15.1174,15.1174,0,0,0-1.3672-7.0556q-1.3682-2.5562-5.247-2.5576-3.7926,0-5.0708,2.8222a18.7478,18.7478,0,0,0-1.3667,7.32v2.6456H556.6987v-3.4395a22.7666,22.7666,0,0,1,2.1607-10.3623,14.8716,14.8716,0,0,1,6.3052-6.5264,20.8241,20.8241,0,0,1,10.0537-2.248,21.594,21.594,0,0,1,10.23,2.2041,14.7408,14.7408,0,0,1,6.3057,6.3935,22.2305,22.2305,0,0,1,2.1607,10.2745,18.7124,18.7124,0,0,1-2.646,10.4062,12.1493,12.1493,0,0,1-6.7906,5.291,11.7253,11.7253,0,0,1,4.9385,3.043,14.7325,14.7325,0,0,1,3.3071,5.6435,26.1959,26.1959,0,0,1,1.191,8.4229,32.6364,32.6364,0,0,1-1.8082,11.332,15.23,15.23,0,0,1-5.9086,7.628Q582.0969,1419.7978,575.3066,1419.7988Z" transform="translate(0 0)"/><rect class="cls-9" x="1633.5" y="312.5" width="166.5" height="271.8077" rx="23.9005" ry="23.9005"/><path class="cls-10" d="M1736.3173,372.2692h-75.6312a2.9938,2.9938,0,0,1-2.9938-2.9938V353.9169a2.9938,2.9938,0,0,1,2.9938-2.9938H1775.66a2.9938,2.9938,0,0,1,2.9938,2.9938v15.3585a2.9937,2.9937,0,0,1-2.9938,2.9938h-39.3427" transform="translate(0 0)"/><path class="cls-10" d="M1736.3173,406.4231h-75.6312a2.9938,2.9938,0,0,1-2.9938-2.9938V388.0707a2.9938,2.9938,0,0,1,2.9938-2.9938H1775.66a2.9938,2.9938,0,0,1,2.9938,2.9938v15.3586a2.9938,2.9938,0,0,1-2.9938,2.9938h-39.3427" transform="translate(0 0)"/><path class="cls-10" d="M1736.3173,440.5769h-75.6312a2.9938,2.9938,0,0,1-2.9938-2.9938V422.2246a2.9938,2.9938,0,0,1,2.9938-2.9938H1775.66a2.9937,2.9937,0,0,1,2.9938,2.9938v15.3585a2.9938,2.9938,0,0,1-2.9938,2.9938h-39.3427" transform="translate(0 0)"/><rect class="cls-10" x="1684.7308" y="523.1154" width="11.0288" height="11.0288" rx="5.5144" ry="5.5144"/><rect class="cls-10" x="1710.6486" y="523.1154" width="11.0288" height="11.0288" rx="5.5144" ry="5.5144"/><rect class="cls-10" x="1738.2207" y="523.1154" width="11.0288" height="11.0288" rx="5.5144" ry="5.5144"/><path class="cls-10" d="M1736.3173,474.7308h-75.6312a2.9938,2.9938,0,0,1-2.9938-2.9938V456.3784a2.9938,2.9938,0,0,1,2.9938-2.9938H1775.66a2.9938,2.9938,0,0,1,2.9938,2.9938V471.737a2.9938,2.9938,0,0,1-2.9938,2.9938h-39.3427" transform="translate(0 0)"/><path class="cls-4" d="M1333.4961,186.74V115.3076h17.1084a37.7458,37.7458,0,0,1,12.2139,1.72,14.0362,14.0362,0,0,1,7.5839,5.8643q2.6016,4.1456,2.6016,11.2881a34.6188,34.6188,0,0,1-.793,7.7607,14.7691,14.7691,0,0,1-2.6894,5.8643,12.1252,12.1252,0,0,1-5.2481,3.748l9.9659,35.1875h-13.0518l-8.6426-32.7177h-5.997V186.74Zm13.0518-40.92h4.0566a13.8463,13.8463,0,0,0,6.041-1.1025,6.4351,6.4351,0,0,0,3.2188-3.5274,16.9474,16.9474,0,0,0,.97-6.2168q0-5.3789-1.9844-8.0693t-7.5391-2.69h-4.7626Z" transform="translate(0 0)"/><path class="cls-4" d="M1391.9648,187.5342a9.7244,9.7244,0,0,1-5.9082-1.8086,11.9775,11.9775,0,0,1-3.7929-4.585,13.2976,13.2976,0,0,1-1.3223-5.7763,15.8554,15.8554,0,0,1,6.4375-13.4932,32.8321,32.8321,0,0,1,6.6143-3.8359q3.7046-1.6318,7.4961-2.9551v-4.4092a18.7555,18.7555,0,0,0-.3086-3.7041,4.2521,4.2521,0,0,0-1.1465-2.293,3.6767,3.6767,0,0,0-2.6016-.7929,3.8948,3.8948,0,0,0-2.4248.705,3.8513,3.8513,0,0,0-1.3232,1.9844,12.1458,12.1458,0,0,0-.4854,2.9541l-.1758,3.0869-11.3769-.4414q.265-8.8169,4.3652-13.0078,4.1016-4.188,12.4785-4.1885,7.6729,0,11.1563,4.2325t3.4844,11.4648v23.5469q0,2.8227.1318,5.1142.1318,2.2955.3525,4.1455.22,1.8516.3965,3.2627h-10.7588q-.265-1.7635-.6611-4.0127t-.5732-3.3066a13.075,13.075,0,0,1-3.3506,5.6A8.97,8.97,0,0,1,1391.9648,187.5342Zm4.41-8.9072a4.3207,4.3207,0,0,0,2.16-.5733,8.3273,8.3273,0,0,0,1.8076-1.3672,7.0828,7.0828,0,0,0,1.1465-1.4111V161.0771q-1.941,1.1471-3.6592,2.293a16.964,16.964,0,0,0-2.999,2.5137,9.8932,9.8932,0,0,0-1.9405,2.9541,9.59,9.59,0,0,0-.6611,3.7041,7.8449,7.8449,0,0,0,1.1025,4.4531A3.4752,3.4752,0,0,0,1396.375,178.627Z" transform="translate(0 0)"/><path class="cls-4" d="M1435.7949,187.5342a16.02,16.02,0,0,1-10.584-3.44q-4.1454-3.4393-5.9082-10.0537l8.9073-3.4394a16.8175,16.8175,0,0,0,2.8222,6.35,5.5947,5.5947,0,0,0,4.585,2.2051,4.31,4.31,0,0,0,3.1758-1.0586,3.9346,3.9346,0,0,0,1.0586-2.91,6.2806,6.2806,0,0,0-1.2793-3.8359,27.5674,27.5674,0,0,0-4.3653-4.2774l-6.1738-5.2031a31.3829,31.3829,0,0,1-5.4238-5.9531,13.2529,13.2529,0,0,1-2.0723-7.628,12.3372,12.3372,0,0,1,7.1-11.6855A16.4265,16.4265,0,0,1,1435,134.9736a13.6013,13.6013,0,0,1,9.9219,3.6592,17.2156,17.2156,0,0,1,4.8066,9.5693l-7.85,3.3506a18.1535,18.1535,0,0,0-1.2783-3.9238,8.6657,8.6657,0,0,0-2.1611-2.9551,4.5716,4.5716,0,0,0-3.086-1.1465,3.9152,3.9152,0,0,0-2.9551,1.1465,4.0282,4.0282,0,0,0-1.1015,2.91,4.9706,4.9706,0,0,0,1.2783,3.0869,28.4065,28.4065,0,0,0,3.66,3.6162l6.2607,5.6436a47.3014,47.3014,0,0,1,3.8809,3.792,19.387,19.387,0,0,1,3.0859,4.5419,12.9408,12.9408,0,0,1,1.2353,5.7764,13.13,13.13,0,0,1-1.9843,7.4082,12.4979,12.4979,0,0,1-5.38,4.541A18.0206,18.0206,0,0,1,1435.7949,187.5342Z" transform="translate(0 0)"/><path class="cls-4" d="M1457.2236,203.4961V135.7666h11.9932v3.8809a18.7815,18.7815,0,0,1,4.8506-3.3955,12.6273,12.6273,0,0,1,5.5556-1.2784,9.4327,9.4327,0,0,1,5.6446,1.5869,10.7441,10.7441,0,0,1,3.4394,4.19,20.75,20.75,0,0,1,1.72,5.5557,35.2665,35.2665,0,0,1,.4853,5.6884v17.2852a33.1452,33.1452,0,0,1-1.1914,9.1709,14.35,14.35,0,0,1-3.791,6.6143,9.6446,9.6446,0,0,1-6.9238,2.47,10.6067,10.6067,0,0,1-5.1582-1.3233,23.3,23.3,0,0,1-4.6309-3.3505v20.6357Zm17.2852-24.34a3.3008,3.3008,0,0,0,2.8662-1.2793,7.6619,7.6619,0,0,0,1.2344-3.44,33.541,33.541,0,0,0,.3086-4.7178V151.4648a23.6736,23.6736,0,0,0-.3526-4.2773,6.4565,6.4565,0,0,0-1.3232-3.043,3.497,3.497,0,0,0-2.8223-1.1465,6.3031,6.3031,0,0,0-2.7773.6622,11.8017,11.8017,0,0,0-2.4258,1.5429v32.1895a10.9106,10.9106,0,0,0,2.47,1.2783A8.109,8.109,0,0,0,1474.5088,179.1563Z" transform="translate(0 0)"/><path class="cls-4" d="M1521.16,187.5342a11.0327,11.0327,0,0,1-5.2911-1.3233,22.4445,22.4445,0,0,1-4.5859-3.2627v3.792h-11.9941V115.3076h11.9941v24.34a19.0764,19.0764,0,0,1,4.8066-3.3955,12.5306,12.5306,0,0,1,5.6-1.2784,9.4326,9.4326,0,0,1,5.6445,1.5869,10.7441,10.7441,0,0,1,3.4394,4.19,20.7481,20.7481,0,0,1,1.7188,5.5557,35.1578,35.1578,0,0,1,.4863,5.6884v17.2852a33.1414,33.1414,0,0,1-1.1914,9.1709,14.3425,14.3425,0,0,1-3.792,6.6143A9.52,9.52,0,0,1,1521.16,187.5342Zm-4.586-8.3779a3.3015,3.3015,0,0,0,2.8672-1.2793,7.6607,7.6607,0,0,0,1.2344-3.44,33.541,33.541,0,0,0,.3086-4.7178V151.4648a23.5874,23.5874,0,0,0-.3535-4.2773,6.7125,6.7125,0,0,0-1.2784-3.043,3.4708,3.4708,0,0,0-2.8662-1.1465,6.034,6.034,0,0,0-2.7334.6622,20.0794,20.0794,0,0,0-2.47,1.455v32.1885a11.97,11.97,0,0,0,2.5137,1.3233A7.6362,7.6362,0,0,0,1516.5742,179.1563Z" transform="translate(0 0)"/><path class="cls-4" d="M1556.6992,187.5342a18.0293,18.0293,0,0,1-9.3476-2.1612,12.8039,12.8039,0,0,1-5.336-6.35,26.56,26.56,0,0,1-1.7187-10.0976V153.5811a26.7587,26.7587,0,0,1,1.7187-10.23,12.5457,12.5457,0,0,1,5.38-6.2618,18.3841,18.3841,0,0,1,9.3037-2.1162q6.0851,0,9.48,2.293a12.51,12.51,0,0,1,4.8506,6.6582,33.88,33.88,0,0,1,1.4551,10.627v7.2314h-20.2833v10.0527a14.1264,14.1264,0,0,0,.4854,4.0567,4.04,4.04,0,0,0,1.543,2.2929,4.4892,4.4892,0,0,0,2.5566.7061,4.0738,4.0738,0,0,0,2.5586-.75,4.24,4.24,0,0,0,1.41-2.2041,12.842,12.842,0,0,0,.4414-3.66v-4.2334h11.1992v3.4395q0,7.7622-3.8789,11.9053Q1564.6358,187.5356,1556.6992,187.5342Zm-4.4971-31.66h8.9952v-4.8506a16.9009,16.9009,0,0,0-.4414-4.2773,4.3247,4.3247,0,0,0-1.41-2.3809,4.393,4.393,0,0,0-2.7344-.749,3.9157,3.9157,0,0,0-2.5576.793,4.7174,4.7174,0,0,0-1.4111,2.6465,24.1684,24.1684,0,0,0-.44,5.291Z" transform="translate(0 0)"/><path class="cls-4" d="M1580.8633,186.74V135.7666h11.9941v7.85a21.9324,21.9324,0,0,1,5.291-6.4824,9.487,9.487,0,0,1,5.82-1.9844,8.7332,8.7332,0,0,1,.9257.044q.3985.0468.9258.1328v12.4345a15.7533,15.7533,0,0,0-2.3359-.75,11.1019,11.1019,0,0,0-2.6016-.3086,8.3512,8.3512,0,0,0-4.3223,1.1465,12.0323,12.0323,0,0,0-3.7031,3.792v35.1Z" transform="translate(0 0)"/><path class="cls-4" d="M1611.9941,186.74V135.7666h11.9942v7.85a21.9309,21.9309,0,0,1,5.291-6.4824,9.4848,9.4848,0,0,1,5.82-1.9844,8.7641,8.7641,0,0,1,.9258.044q.3969.0468.9258.1328v12.4345a15.7673,15.7673,0,0,0-2.3369-.75,11.0906,11.0906,0,0,0-2.6016-.3086,8.35,8.35,0,0,0-4.3213,1.1465,12.0112,12.0112,0,0,0-3.7031,3.792v35.1Z" transform="translate(0 0)"/><path class="cls-4" d="M1643.2129,200.5859v-8.6425a29.1618,29.1618,0,0,0,5.0264-.3526,5.2747,5.2747,0,0,0,2.8222-1.2344,3.3442,3.3442,0,0,0,.8819-2.47,18.068,18.068,0,0,0-.5733-3.6162q-.5757-2.4667-1.2783-5.3789l-11.2012-43.125h11.6416l6.6143,33.6006,5.7324-33.6006h11.5527l-11.9062,53.002a15.1579,15.1579,0,0,1-3.2627,7.0546,12.7785,12.7785,0,0,1-5.7315,3.66,26.37,26.37,0,0,1-8.0253,1.1025Z" transform="translate(0 0)"/><path class="cls-4" d="M1702.21,186.74V115.3076h20.9882q6.4366,0,10.4512,2.3809a14.1309,14.1309,0,0,1,5.9082,6.9228,28.4807,28.4807,0,0,1,1.8965,10.98q0,6.9669-2.3818,11.2442a14.1788,14.1788,0,0,1-6.6582,6.2168,24.2628,24.2628,0,0,1-10.0977,1.94h-7.0547V186.74Zm13.0517-40.92H1720.2a12.2854,12.2854,0,0,0,5.5117-1.0137,5.4264,5.4264,0,0,0,2.7344-3.2636,19.729,19.729,0,0,0,.749-6.04,28.2949,28.2949,0,0,0-.5732-6.3056,5.4239,5.4239,0,0,0-2.4688-3.5723,11.9077,11.9077,0,0,0-5.9531-1.1465h-4.9385Z" transform="translate(0 0)"/><path class="cls-4" d="M1747.8906,127.6533v-9.9648h11.9942v9.9648Zm0,59.0869V135.7666h11.9942V186.74Z" transform="translate(0 0)"/><path class="cls-4" d="M1789.4268,186.74l20.6357-71.4326H1818L1797.3633,186.74Z" transform="translate(0 0)"/><path class="cls-4" d="M1865.9736,187.71a21.1182,21.1182,0,0,1-10.7588-2.5127,15.8207,15.8207,0,0,1-6.5263-7.3643,31.6018,31.6018,0,0,1-2.4688-11.9053l11.1992-2.205a34.5186,34.5186,0,0,0,1.0147,7.32,10.587,10.587,0,0,0,2.5576,4.8945,6.1374,6.1374,0,0,0,4.541,1.72q3.1758,0,4.4981-1.8965a8.2077,8.2077,0,0,0,1.3232-4.8066,12.9979,12.9979,0,0,0-2.1172-7.6719,33.0865,33.0865,0,0,0-5.6435-5.997l-8.9951-7.9375a26.9752,26.9752,0,0,1-6.0411-7.2754,20.0382,20.0382,0,0,1-2.249-9.9209q0-8.4669,4.9385-13.0518t13.4932-4.5859a20.0561,20.0561,0,0,1,8.3779,1.5429,13.336,13.336,0,0,1,5.3349,4.2774,19.3028,19.3028,0,0,1,2.9541,6.2178,36.7539,36.7539,0,0,1,1.2354,7.3632l-11.1123,1.9405a38.1273,38.1273,0,0,0-.749-5.9971,8.3567,8.3567,0,0,0-2.0283-4.1445,5.7,5.7,0,0,0-4.2774-1.5,5.4113,5.4113,0,0,0-4.4541,1.8965,7.2288,7.2288,0,0,0-1.543,4.7177,10.8276,10.8276,0,0,0,1.4991,5.9532,23.25,23.25,0,0,0,4.3213,4.8066l8.9072,7.8486a36.9211,36.9211,0,0,1,7.54,8.6865,22.1874,22.1874,0,0,1,3.1309,12.0381,18.1,18.1,0,0,1-2.249,9.083,16.1231,16.1231,0,0,1-6.2618,6.2178A18.9015,18.9015,0,0,1,1865.9736,187.71Z" transform="translate(0 0)"/><path class="cls-4" d="M1906.1865,187.5342a18.0293,18.0293,0,0,1-9.3476-2.1612,12.8084,12.8084,0,0,1-5.336-6.35,26.58,26.58,0,0,1-1.7187-10.0976V153.5811a26.7779,26.7779,0,0,1,1.7187-10.23,12.5457,12.5457,0,0,1,5.38-6.2618,18.3867,18.3867,0,0,1,9.3037-2.1162q6.085,0,9.48,2.293a12.51,12.51,0,0,1,4.8506,6.6582,33.88,33.88,0,0,1,1.4551,10.627v7.2314H1901.69v10.0527a14.1662,14.1662,0,0,0,.4843,4.0567,4.0408,4.0408,0,0,0,1.544,2.2929,4.4905,4.4905,0,0,0,2.5576.7061,4.0678,4.0678,0,0,0,2.5566-.75,4.2417,4.2417,0,0,0,1.4112-2.2041,12.842,12.842,0,0,0,.4414-3.66v-4.2334h11.2v3.4395q0,7.7622-3.8809,11.9053Q1914.1221,187.5356,1906.1865,187.5342Zm-4.497-31.66h8.9951v-4.8506a16.9009,16.9009,0,0,0-.4414-4.2773,4.3256,4.3256,0,0,0-1.4112-2.3809,4.3879,4.3879,0,0,0-2.7334-.749,3.9157,3.9157,0,0,0-2.5576.793,4.718,4.718,0,0,0-1.4111,2.6465,24.17,24.17,0,0,0-.44,5.291Z" transform="translate(0 0)"/><path class="cls-4" d="M1930.3506,186.74V135.7666h11.9932v7.85a21.9317,21.9317,0,0,1,5.2919-6.4824,9.4851,9.4851,0,0,1,5.82-1.9844,8.7607,8.7607,0,0,1,.9257.044q.3971.0468.9258.1328v12.4345a15.7635,15.7635,0,0,0-2.3369-.75,11.0893,11.0893,0,0,0-2.6016-.3086,8.35,8.35,0,0,0-4.3212,1.1465,12.0215,12.0215,0,0,0-3.7041,3.792v35.1Z" transform="translate(0 0)"/><path class="cls-4" d="M1967.8311,186.74,1957.69,135.7666h11.7285l5.2031,36.5986,5.1152-36.5986h11.5528L1981.1475,186.74Z" transform="translate(0 0)"/><path class="cls-4" d="M2012.2764,187.5342a18.03,18.03,0,0,1-9.3477-2.1612,12.8087,12.8087,0,0,1-5.3359-6.35,26.5794,26.5794,0,0,1-1.7188-10.0976V153.5811a26.7778,26.7778,0,0,1,1.7188-10.23,12.5452,12.5452,0,0,1,5.38-6.2618,18.3864,18.3864,0,0,1,9.3037-2.1162q6.0849,0,9.48,2.293a12.51,12.51,0,0,1,4.8506,6.6582,33.88,33.88,0,0,1,1.4551,10.627v7.2314h-20.2832v10.0527a14.1622,14.1622,0,0,0,.4844,4.0567,4.0407,4.0407,0,0,0,1.5439,2.2929,4.4908,4.4908,0,0,0,2.5576.7061,4.0681,4.0681,0,0,0,2.5567-.75,4.241,4.241,0,0,0,1.4111-2.2041,12.8384,12.8384,0,0,0,.4414-3.66v-4.2334h11.2v3.4395q0,7.7622-3.8808,11.9053Q2020.212,187.5356,2012.2764,187.5342Zm-4.4971-31.66h8.9951v-4.8506a16.8963,16.8963,0,0,0-.4414-4.2773,4.325,4.325,0,0,0-1.4111-2.3809,4.3881,4.3881,0,0,0-2.7334-.749,3.9155,3.9155,0,0,0-2.5576.793,4.7181,4.7181,0,0,0-1.4112,2.6465,24.17,24.17,0,0,0-.44,5.291Z" transform="translate(0 0)"/><path class="cls-4" d="M2036.44,186.74V135.7666h11.9932v7.85a21.9318,21.9318,0,0,1,5.292-6.4824,9.4848,9.4848,0,0,1,5.82-1.9844,8.7641,8.7641,0,0,1,.9258.044q.3969.0468.9258.1328v12.4345a15.7649,15.7649,0,0,0-2.337-.75,11.0891,11.0891,0,0,0-2.6015-.3086,8.35,8.35,0,0,0-4.3213,1.1465,12.0236,12.0236,0,0,0-3.7041,3.792v35.1Z" transform="translate(0 0)"/><line class="cls-11" x1="759" y1="758" x2="1598.5" y2="505.5"/><path class="cls-4" d="M1430.4961,1512.74v-71.4326h9.083l17.374,40.7432v-40.7432h10.7578V1512.74h-8.6425l-17.461-42.6836V1512.74Z" transform="translate(0 0)"/><path class="cls-4" d="M1493.1982,1513.5342a18.2721,18.2721,0,0,1-9.1718-2.0723,12.9221,12.9221,0,0,1-5.4229-6.041,23.0616,23.0616,0,0,1-1.8086-9.6133v-17.1084a23.06,23.06,0,0,1,1.8086-9.6123,12.9268,12.9268,0,0,1,5.4229-6.041,18.2616,18.2616,0,0,1,9.1718-2.0723,18.517,18.517,0,0,1,9.2159,2.0723,12.879,12.879,0,0,1,5.4668,6.041,23.0917,23.0917,0,0,1,1.8086,9.6123v17.1084a23.0933,23.0933,0,0,1-1.8086,9.6133,12.8744,12.8744,0,0,1-5.4668,6.041A18.5278,18.5278,0,0,1,1493.1982,1513.5342Zm.0879-8.29a3.7138,3.7138,0,0,0,2.9991-1.1464,5.9655,5.9655,0,0,0,1.2343-3.1309,33.2623,33.2623,0,0,0,.2637-4.3652v-18.6963a32.2774,32.2774,0,0,0-.2637-4.3213,6.1772,6.1772,0,0,0-1.2343-3.13,4.3691,4.3691,0,0,0-5.9971,0,6.4539,6.4539,0,0,0-1.2783,3.13,27.4862,27.4862,0,0,0-.3086,4.3213v18.6963a28.3213,28.3213,0,0,0,.3086,4.3652,6.218,6.218,0,0,0,1.2783,3.1309A3.7074,3.7074,0,0,0,1493.2861,1505.2441Z" transform="translate(0 0)"/><path class="cls-4" d="M1529.3535,1513.5342q-6.0849,0-9.2148-4.3213-3.1318-4.32-3.1309-13.8457v-15.6094a35.1768,35.1768,0,0,1,1.19-9.5244,14.4744,14.4744,0,0,1,3.836-6.7471,9.95,9.95,0,0,1,7.1435-2.5127,11.728,11.728,0,0,1,5.07,1.1026,17.3365,17.3365,0,0,1,4.2774,2.8652v-23.6338H1550.52V1512.74h-11.9941v-3.6162a17.6073,17.6073,0,0,1-4.32,3.22A10.4,10.4,0,0,1,1529.3535,1513.5342Zm4.41-8.29a6.6575,6.6575,0,0,0,2.2051-.44,14.4268,14.4268,0,0,0,2.5566-1.2353v-32.7178a12.0937,12.0937,0,0,0-2.293-1.19,6.96,6.96,0,0,0-2.5566-.4854,3.6032,3.6032,0,0,0-3.5723,2.3369,14.2775,14.2775,0,0,0-1.0137,5.6885v19.0488a26.8965,26.8965,0,0,0,.3526,4.586,6.6086,6.6086,0,0,0,1.3662,3.2187A3.665,3.665,0,0,0,1533.7637,1505.2441Z" transform="translate(0 0)"/><path class="cls-4" d="M1575.0352,1513.5342a18.03,18.03,0,0,1-9.3477-2.1612,12.8032,12.8032,0,0,1-5.3359-6.35,26.56,26.56,0,0,1-1.7188-10.0976v-15.3447a26.7586,26.7586,0,0,1,1.7188-10.23,12.5451,12.5451,0,0,1,5.38-6.2618,18.3845,18.3845,0,0,1,9.3038-2.1162q6.0849,0,9.48,2.293a12.51,12.51,0,0,1,4.8506,6.6582,33.88,33.88,0,0,1,1.4551,10.627v7.2314h-20.2832v10.0527a14.1268,14.1268,0,0,0,.4853,4.0567,4.04,4.04,0,0,0,1.543,2.2929,4.49,4.49,0,0,0,2.5566.7061,4.0738,4.0738,0,0,0,2.5586-.75,4.24,4.24,0,0,0,1.41-2.2041,12.842,12.842,0,0,0,.4414-3.66v-4.2334h11.1992v3.44q0,7.7622-3.8789,11.9053Q1582.9717,1513.5356,1575.0352,1513.5342Zm-4.4971-31.66h8.9951v-4.8506a16.9009,16.9009,0,0,0-.4414-4.2773,4.3241,4.3241,0,0,0-1.41-2.3809,4.3929,4.3929,0,0,0-2.7343-.749,3.916,3.916,0,0,0-2.5577.793,4.7186,4.7186,0,0,0-1.4111,2.6465,24.17,24.17,0,0,0-.44,5.291Z" transform="translate(0 0)"/><path class="cls-4" d="M1599.1992,1512.74v-50.9736h11.9942v7.85a21.9293,21.9293,0,0,1,5.291-6.4824,9.4846,9.4846,0,0,1,5.82-1.9844,8.7641,8.7641,0,0,1,.9258.044q.3969.0468.9257.1328v12.4345a15.76,15.76,0,0,0-2.3369-.75,11.0891,11.0891,0,0,0-2.6015-.3086,8.35,8.35,0,0,0-4.3213,1.1465,12.01,12.01,0,0,0-3.7031,3.792v35.1Z" transform="translate(0 0)"/><path class="cls-4" d="M1645.498,1513.5342a18.0293,18.0293,0,0,1-9.3476-2.1612,12.8032,12.8032,0,0,1-5.3359-6.35,26.5592,26.5592,0,0,1-1.72-10.0976v-15.3447a26.7575,26.7575,0,0,1,1.72-10.23,12.5477,12.5477,0,0,1,5.3789-6.2618,18.3877,18.3877,0,0,1,9.3046-2.1162q6.085,0,9.48,2.293a12.5131,12.5131,0,0,1,4.85,6.6582,33.851,33.851,0,0,1,1.4551,10.627v7.2314H1641v10.0527a14.1583,14.1583,0,0,0,.4854,4.0567,4.0354,4.0354,0,0,0,1.5439,2.2929,4.49,4.49,0,0,0,2.5566.7061,4.0693,4.0693,0,0,0,2.5577-.75,4.2416,4.2416,0,0,0,1.4111-2.2041,12.8743,12.8743,0,0,0,.4414-3.66v-4.2334h11.1992v3.44q0,7.7622-3.88,11.9053Q1653.4336,1513.5356,1645.498,1513.5342Zm-4.498-31.66h8.9961v-4.8506a16.9425,16.9425,0,0,0-.4414-4.2773,4.3255,4.3255,0,0,0-1.4111-2.3809,4.39,4.39,0,0,0-2.7334-.749,3.9184,3.9184,0,0,0-2.5586.793,4.7175,4.7175,0,0,0-1.41,2.6465,24.1582,24.1582,0,0,0-.4414,5.291Z" transform="translate(0 0)"/><path class="cls-4" d="M1680.8613,1513.5342q-6.0849,0-9.2158-4.3213t-3.13-13.8457v-15.6094a35.2138,35.2138,0,0,1,1.1895-9.5244,14.4734,14.4734,0,0,1,3.8359-6.7471,9.951,9.951,0,0,1,7.1445-2.5127,11.7319,11.7319,0,0,1,5.07,1.1026,17.3732,17.3732,0,0,1,4.2773,2.8652v-23.6338h11.9941V1512.74h-11.9941v-3.6162a17.5931,17.5931,0,0,1-4.3213,3.22A10.396,10.396,0,0,1,1680.8613,1513.5342Zm4.41-8.29a6.6565,6.6565,0,0,0,2.2041-.44,14.4308,14.4308,0,0,0,2.5576-1.2353v-32.7178a12.1238,12.1238,0,0,0-2.293-1.19,6.961,6.961,0,0,0-2.5576-.4854,3.602,3.602,0,0,0-3.5713,2.3369,14.2611,14.2611,0,0,0-1.0146,5.6885v19.0488a26.9074,26.9074,0,0,0,.3525,4.586,6.6092,6.6092,0,0,0,1.3672,3.2187A3.6637,3.6637,0,0,0,1685.2715,1505.2441Z" transform="translate(0 0)"/><path class="cls-4" d="M1740.8291,1512.74l-10.1416-71.4326h10.9355l5.9082,46.2988,7.4083-46.123h8.9072l7.5849,46.123,5.82-46.2988H1788.01l-9.9649,71.4326h-10.582l-7.9375-47.8867-7.85,47.8867Z" transform="translate(0 0)"/><path class="cls-4" d="M1810.2324,1513.5342a18.0293,18.0293,0,0,1-9.3476-2.1612,12.8084,12.8084,0,0,1-5.336-6.35,26.58,26.58,0,0,1-1.7187-10.0976v-15.3447a26.7779,26.7779,0,0,1,1.7187-10.23,12.5457,12.5457,0,0,1,5.38-6.2618,18.3867,18.3867,0,0,1,9.3037-2.1162q6.085,0,9.48,2.293a12.51,12.51,0,0,1,4.8506,6.6582,33.88,33.88,0,0,1,1.4551,10.627v7.2314h-20.2832v10.0527a14.1662,14.1662,0,0,0,.4843,4.0567,4.0408,4.0408,0,0,0,1.544,2.2929,4.4905,4.4905,0,0,0,2.5576.7061,4.0678,4.0678,0,0,0,2.5566-.75,4.2417,4.2417,0,0,0,1.4112-2.2041,12.842,12.842,0,0,0,.4414-3.66v-4.2334h11.2v3.44q0,7.7622-3.8809,11.9053Q1818.168,1513.5356,1810.2324,1513.5342Zm-4.497-31.66h8.9951v-4.8506a16.9009,16.9009,0,0,0-.4414-4.2773,4.3256,4.3256,0,0,0-1.4112-2.3809,4.3879,4.3879,0,0,0-2.7334-.749,3.9157,3.9157,0,0,0-2.5576.793,4.718,4.718,0,0,0-1.4111,2.6465,24.17,24.17,0,0,0-.44,5.291Z" transform="translate(0 0)"/><path class="cls-4" d="M1856.0918,1513.5342a11.0269,11.0269,0,0,1-5.291-1.3233,22.4178,22.4178,0,0,1-4.586-3.2627v3.792h-11.9941v-71.4326h11.9941v24.34a19.07,19.07,0,0,1,4.8057-3.3955,12.5316,12.5316,0,0,1,5.6006-1.2784,9.4271,9.4271,0,0,1,5.6435,1.5869,10.7434,10.7434,0,0,1,3.4395,4.1895,20.7137,20.7137,0,0,1,1.72,5.5557,35.2556,35.2556,0,0,1,.4854,5.6884v17.2852a33.1839,33.1839,0,0,1-1.19,9.1709,14.3512,14.3512,0,0,1-3.792,6.6143A9.52,9.52,0,0,1,1856.0918,1513.5342Zm-4.5859-8.3779a3.3,3.3,0,0,0,2.8662-1.2793,7.6488,7.6488,0,0,0,1.2343-3.4395,33.3914,33.3914,0,0,0,.3086-4.7178v-18.2549a23.5838,23.5838,0,0,0-.3525-4.2773,6.7343,6.7343,0,0,0-1.2783-3.043,3.4722,3.4722,0,0,0-2.8662-1.1465,6.0378,6.0378,0,0,0-2.7344.6622,19.993,19.993,0,0,0-2.4688,1.455v32.1885a11.9374,11.9374,0,0,0,2.5127,1.3233A7.6424,7.6424,0,0,0,1851.5059,1505.1563Z" transform="translate(0 0)"/><path class="cls-4" d="M1886.0742,1513.5342a9.724,9.724,0,0,1-5.9082-1.8086,11.97,11.97,0,0,1-3.793-4.585,13.2847,13.2847,0,0,1-1.3222-5.7763,15.8554,15.8554,0,0,1,6.4375-13.4932,32.8617,32.8617,0,0,1,6.6142-3.8359q3.7047-1.6318,7.4961-2.9551v-4.4092a18.8243,18.8243,0,0,0-.3086-3.7041,4.252,4.252,0,0,0-1.1464-2.293,3.675,3.675,0,0,0-2.6016-.7929,3.8968,3.8968,0,0,0-2.4248.705,3.846,3.846,0,0,0-1.3233,1.9844,12.1508,12.1508,0,0,0-.4853,2.9541l-.1758,3.0869-11.3769-.4414q.265-8.8169,4.3652-13.0078,4.1016-4.188,12.4795-4.1885,7.6713,0,11.1553,4.2325t3.4834,11.4648v23.5469q0,2.8227.1328,5.1142.1318,2.2954.3525,4.1455.22,1.8516.3965,3.2627h-10.7588q-.2637-1.7635-.6611-4.0127t-.5733-3.3066a13.0663,13.0663,0,0,1-3.3515,5.6A8.9662,8.9662,0,0,1,1886.0742,1513.5342Zm4.4092-8.9072a4.321,4.321,0,0,0,2.1611-.5733,8.371,8.371,0,0,0,1.8076-1.3672,7.0793,7.0793,0,0,0,1.1465-1.4111v-14.1983q-1.9409,1.1471-3.66,2.293a16.9606,16.9606,0,0,0-2.9981,2.5137,9.8947,9.8947,0,0,0-1.94,2.9541,9.59,9.59,0,0,0-.6611,3.7041,7.8449,7.8449,0,0,0,1.1025,4.4531A3.4747,3.4747,0,0,0,1890.4834,1504.627Z" transform="translate(0 0)"/><path class="cls-4" d="M1916.0586,1529.4961v-67.73h11.9932v3.8809a18.8,18.8,0,0,1,4.8505-3.3955,12.6249,12.6249,0,0,1,5.5557-1.2784,9.4324,9.4324,0,0,1,5.6445,1.5869,10.7434,10.7434,0,0,1,3.4395,4.1895,20.782,20.782,0,0,1,1.72,5.5557,35.2556,35.2556,0,0,1,.4854,5.6884v17.2852a33.1452,33.1452,0,0,1-1.1914,9.1709,14.3425,14.3425,0,0,1-3.792,6.6143,9.6422,9.6422,0,0,1-6.9229,2.47,10.6163,10.6163,0,0,1-5.1592-1.3233,23.3537,23.3537,0,0,1-4.63-3.3505v20.6357Zm17.2852-24.34a3.301,3.301,0,0,0,2.8662-1.2793,7.6618,7.6618,0,0,0,1.2343-3.4395,33.541,33.541,0,0,0,.3086-4.7178v-18.2549a23.5838,23.5838,0,0,0-.3525-4.2773,6.4575,6.4575,0,0,0-1.3233-3.043,3.4954,3.4954,0,0,0-2.8222-1.1465,6.31,6.31,0,0,0-2.7774.6622,11.7982,11.7982,0,0,0-2.4257,1.5429v32.1895a10.9064,10.9064,0,0,0,2.47,1.2783A8.1085,8.1085,0,0,0,1933.3438,1505.1563Z" transform="translate(0 0)"/><path class="cls-4" d="M1958.0361,1529.4961v-67.73h11.9932v3.8809a18.7985,18.7985,0,0,1,4.8506-3.3955,12.6245,12.6245,0,0,1,5.5556-1.2784,9.4327,9.4327,0,0,1,5.6446,1.5869,10.7441,10.7441,0,0,1,3.4394,4.1895,20.7857,20.7857,0,0,1,1.72,5.5557,35.2665,35.2665,0,0,1,.4853,5.6884v17.2852a33.1452,33.1452,0,0,1-1.1914,9.1709,14.3425,14.3425,0,0,1-3.792,6.6143,9.6421,9.6421,0,0,1-6.9228,2.47,10.6161,10.6161,0,0,1-5.1592-1.3233,23.3514,23.3514,0,0,1-4.63-3.3505v20.6357Zm17.2852-24.34a3.3008,3.3008,0,0,0,2.8662-1.2793,7.6619,7.6619,0,0,0,1.2344-3.4395,33.541,33.541,0,0,0,.3086-4.7178v-18.2549a23.5833,23.5833,0,0,0-.3526-4.2773,6.4565,6.4565,0,0,0-1.3232-3.043,3.4956,3.4956,0,0,0-2.8223-1.1465,6.31,6.31,0,0,0-2.7773.6622,11.8017,11.8017,0,0,0-2.4258,1.5429v32.1895a10.9106,10.9106,0,0,0,2.47,1.2783A8.109,8.109,0,0,0,1975.3213,1505.1563Z" transform="translate(0 0)"/><line class="cls-11" x1="1716.5" y1="1098.5" x2="1715" y2="603"/><path class="cls-4" d="M1757.2246,970.8809l.7373-42.6685h8.06l6.0576,29.5522,6.3213-29.5522h7.7969l.79,42.6685h-5.7949l-.6319-29.6573-6.0576,29.6573h-4.6884l-6.1631-29.7627-.58,29.7627Z" transform="translate(0 0)"/><path class="cls-4" d="M1814.1162,979.3623a13.6539,13.6539,0,0,1-2.8183-1.8955,30.2467,30.2467,0,0,1-2.95-2.8711,27.8394,27.8394,0,0,1-2.502-3.1875,1.84,1.84,0,0,1-.4482.0527h-.5a13.4731,13.4731,0,0,1-7.2168-1.6855,9.3149,9.3149,0,0,1-3.8457-4.8467,21.7139,21.7139,0,0,1-1.1592-7.4805V941.4863a21.0415,21.0415,0,0,1,1.1592-7.4,9.0717,9.0717,0,0,1,3.8457-4.7148,13.8217,13.8217,0,0,1,7.2168-1.6328,14.0625,14.0625,0,0,1,7.3222,1.6328,9.0816,9.0816,0,0,1,3.8457,4.7148,21.0886,21.0886,0,0,1,1.1582,7.4V957.501a24.3448,24.3448,0,0,1-.5791,5.5312,11.8448,11.8448,0,0,1-1.8965,4.294,8.7534,8.7534,0,0,1-3.4765,2.8183q.684.7383,1.4219,1.5274t1.4755,1.4746a9.3121,9.3121,0,0,0,1.4219,1.1064Zm-9.2187-13.6435a4.26,4.26,0,0,0,2.8974-.8428,4.1613,4.1613,0,0,0,1.2637-2.3174,15.3235,15.3235,0,0,0,.3164-3.2139V939.6958a14.8623,14.8623,0,0,0-.3164-3.2134,4.0009,4.0009,0,0,0-1.2637-2.2387,4.36,4.36,0,0,0-2.8974-.8165,4.2642,4.2642,0,0,0-2.8448.8165,3.8671,3.8671,0,0,0-1.2382,2.2387,16.1656,16.1656,0,0,0-.2891,3.2134v19.6489a16.6666,16.6666,0,0,0,.2891,3.2139,4.0255,4.0255,0,0,0,1.2382,2.3174A4.1669,4.1669,0,0,0,1804.8975,965.7188Z" transform="translate(0 0)"/><path class="cls-4" d="M1827.0752,970.8809V933.9541h-6.7959v-5.7417h21.2822v5.7417h-6.69v36.9268Z" transform="translate(0 0)"/><path class="cls-4" d="M1849.7266,970.8809V933.9541h-6.7959v-5.7417h21.2822v5.7417h-6.69v36.9268Z" transform="translate(0 0)"/><path class="cls-4" d="M1891.6572,971.4609a12.5969,12.5969,0,0,1-6.4267-1.5019,9.4428,9.4428,0,0,1-3.8985-4.3985,18.8817,18.8817,0,0,1-1.4746-7.1113l6.6895-1.3164a20.6,20.6,0,0,0,.6064,4.3721,6.313,6.313,0,0,0,1.5274,2.9228,3.6635,3.6635,0,0,0,2.7129,1.0274,3.0411,3.0411,0,0,0,2.6865-1.1328,4.9,4.9,0,0,0,.79-2.87,7.7655,7.7655,0,0,0-1.2637-4.583,19.805,19.805,0,0,0-3.372-3.582l-5.3731-4.7412a16.1328,16.1328,0,0,1-3.6084-4.3457,11.9758,11.9758,0,0,1-1.3427-5.9263q0-5.0574,2.9492-7.7964a11.3835,11.3835,0,0,1,8.0595-2.7392,11.9688,11.9688,0,0,1,5.0049.9219,7.9764,7.9764,0,0,1,3.1875,2.5546,11.5555,11.5555,0,0,1,1.7647,3.7139,21.9783,21.9783,0,0,1,.7373,4.3984l-6.6377,1.1592a22.7193,22.7193,0,0,0-.4473-3.582,4.9975,4.9975,0,0,0-1.2119-2.4761,3.4037,3.4037,0,0,0-2.5547-.8955,3.2308,3.2308,0,0,0-2.66,1.1323,4.3175,4.3175,0,0,0-.9219,2.8184,6.4639,6.4639,0,0,0,.8955,3.5557,13.8328,13.8328,0,0,0,2.581,2.8711l5.32,4.6884a22.0787,22.0787,0,0,1,4.5039,5.1885,13.2519,13.2519,0,0,1,1.87,7.1914,10.8139,10.8139,0,0,1-1.3438,5.4258,9.617,9.617,0,0,1-3.7392,3.7129A11.2817,11.2817,0,0,1,1891.6572,971.4609Z" transform="translate(0 0)"/><path class="cls-4" d="M1911.3584,971.3555a4.5914,4.5914,0,0,1-2.95-.9219,5.1983,5.1983,0,0,1-1.6855-2.4766,10.166,10.166,0,0,1-.5274-3.291V940.4336h7.1641v22.915a4.2386,4.2386,0,0,0,.4482,2.1338,1.7575,1.7575,0,0,0,1.6592.7637,3.4809,3.4809,0,0,0,1.6064-.4219,12.0676,12.0676,0,0,0,1.6075-1.001v-24.39h7.164v30.4473h-7.164v-2.8965a14.1612,14.1612,0,0,1-3.3721,2.4228A8.5182,8.5182,0,0,1,1911.3584,971.3555Z" transform="translate(0 0)"/><path class="cls-4" d="M1944.4922,971.3555a6.5925,6.5925,0,0,1-3.1611-.79,13.4076,13.4076,0,0,1-2.7393-1.9492v2.2647h-7.1641V928.2124h7.1641v14.54a11.37,11.37,0,0,1,2.8711-2.0289,7.4825,7.4825,0,0,1,3.3447-.7636,5.6319,5.6319,0,0,1,3.3721.9482,6.4132,6.4132,0,0,1,2.0537,2.5025,12.402,12.402,0,0,1,1.0273,3.3183,21.0831,21.0831,0,0,1,.29,3.3985v10.3242a19.82,19.82,0,0,1-.711,5.4785,8.5859,8.5859,0,0,1-2.2656,3.9512A5.6845,5.6845,0,0,1,1944.4922,971.3555Zm-2.7393-5.0039a1.9744,1.9744,0,0,0,1.7119-.7637,4.5943,4.5943,0,0,0,.7373-2.0547,19.96,19.96,0,0,0,.1846-2.8184V949.8105a14.1081,14.1081,0,0,0-.2109-2.5546,4.0238,4.0238,0,0,0-.7637-1.8184,2.0759,2.0759,0,0,0-1.7119-.6846,3.6107,3.6107,0,0,0-1.6338.3955,12.0554,12.0554,0,0,0-1.4746.8692v19.2265a7.151,7.151,0,0,0,1.501.7911A4.5624,4.5624,0,0,0,1941.7529,966.3516Z" transform="translate(0 0)"/><path class="cls-4" d="M1964.7725,971.3555a9.5687,9.5687,0,0,1-6.3213-2.0547,11.3108,11.3108,0,0,1-3.5293-6.0049l5.32-2.0547a10.0344,10.0344,0,0,0,1.6855,3.793,3.3447,3.3447,0,0,0,2.7393,1.3174,2.5753,2.5753,0,0,0,1.8965-.6328,2.35,2.35,0,0,0,.6318-1.7383,3.7488,3.7488,0,0,0-.7637-2.291,16.4025,16.4025,0,0,0-2.6074-2.5547l-3.6875-3.1084a18.7374,18.7374,0,0,1-3.2392-3.5557,7.9082,7.9082,0,0,1-1.2383-4.5566,7.3711,7.3711,0,0,1,4.24-6.98,9.8113,9.8113,0,0,1,4.3985-.9746,8.1231,8.1231,0,0,1,5.9267,2.186,10.2844,10.2844,0,0,1,2.8711,5.7158l-4.6885,2.002a10.8175,10.8175,0,0,0-.7636-2.3447,5.1729,5.1729,0,0,0-1.2911-1.7647,2.73,2.73,0,0,0-1.8437-.6846,2.3357,2.3357,0,0,0-1.7647.6846,2.4051,2.4051,0,0,0-.6582,1.7383,2.9651,2.9651,0,0,0,.7637,1.8437,16.9073,16.9073,0,0,0,2.1865,2.16l3.74,3.3711a28.2994,28.2994,0,0,1,2.3174,2.2656,11.5761,11.5761,0,0,1,1.8437,2.7129,7.7337,7.7337,0,0,1,.7373,3.45,7.8356,7.8356,0,0,1-1.1855,4.4248,7.4692,7.4692,0,0,1-3.2129,2.7129A10.7656,10.7656,0,0,1,1964.7725,971.3555Z" transform="translate(0 0)"/><path class="cls-4" d="M1986.7393,971.3555a10.51,10.51,0,0,1-5.6631-1.3438,7.6936,7.6936,0,0,1-3.1074-3.8457,16.2828,16.2828,0,0,1-.9747-5.9258v-9.166a16.4147,16.4147,0,0,1,.9747-6.0049,7.5283,7.5283,0,0,1,3.1337-3.7929,10.7165,10.7165,0,0,1,5.6368-1.3169,12.0877,12.0877,0,0,1,5.3466,1.0273,6.2867,6.2867,0,0,1,3.0293,3.1079,12.6635,12.6635,0,0,1,.9483,5.2412v2.5293H1989.32v-2.6875a10.4613,10.4613,0,0,0-.2373-2.5019,2.1625,2.1625,0,0,0-.8164-1.3164,2.6624,2.6624,0,0,0-1.5273-.3955,2.2526,2.2526,0,0,0-1.5274.5009,2.8315,2.8315,0,0,0-.8164,1.6055,15.34,15.34,0,0,0-.2373,3.0567v11.1669a8.4552,8.4552,0,0,0,.6318,3.9776,2.1775,2.1775,0,0,0,2.002,1.0273,2.0949,2.0949,0,0,0,2.3437-1.8711,11.5761,11.5761,0,0,0,.1846-2.2382v-3.2657h6.7432V961.82a12.6267,12.6267,0,0,1-.9746,5.2149,6.6038,6.6038,0,0,1-3.0557,3.24A11.4543,11.4543,0,0,1,1986.7393,971.3555Z" transform="translate(0 0)"/><path class="cls-4" d="M2000.9092,970.8809V940.4336h7.164v4.6885a13.1034,13.1034,0,0,1,3.16-3.8721,5.6673,5.6673,0,0,1,3.4775-1.1851,5.0713,5.0713,0,0,1,.5528.0264q.2373.0272.5527.0786v7.4278a9.2866,9.2866,0,0,0-1.3955-.4473,6.5945,6.5945,0,0,0-1.5537-.1856,4.98,4.98,0,0,0-2.5811.6856,7.1672,7.1672,0,0,0-2.2129,2.2656v20.9649Z" transform="translate(0 0)"/><path class="cls-4" d="M2019.5566,935.5869v-5.9526h7.1641v5.9526Zm0,35.294V940.4336h7.1641v30.4473Z" transform="translate(0 0)"/><path class="cls-4" d="M2045.5264,971.3555a6.5931,6.5931,0,0,1-3.1612-.79,13.407,13.407,0,0,1-2.7392-1.9492v2.2647h-7.1641V928.2124h7.1641v14.54a11.3681,11.3681,0,0,1,2.8711-2.0289,7.4825,7.4825,0,0,1,3.3447-.7636,5.6319,5.6319,0,0,1,3.3721.9482,6.4132,6.4132,0,0,1,2.0537,2.5025,12.402,12.402,0,0,1,1.0273,3.3183,21.0831,21.0831,0,0,1,.29,3.3985v10.3242a19.82,19.82,0,0,1-.711,5.4785,8.5859,8.5859,0,0,1-2.2656,3.9512A5.6845,5.6845,0,0,1,2045.5264,971.3555Zm-2.7393-5.0039a1.9744,1.9744,0,0,0,1.7119-.7637,4.5943,4.5943,0,0,0,.7373-2.0547,19.96,19.96,0,0,0,.1846-2.8184V949.8105a14.1081,14.1081,0,0,0-.2109-2.5546,4.0249,4.0249,0,0,0-.7637-1.8184,2.0761,2.0761,0,0,0-1.7119-.6846,3.61,3.61,0,0,0-1.6338.3955,12.0479,12.0479,0,0,0-1.4746.8692v19.2265a7.1461,7.1461,0,0,0,1.501.7911A4.5624,4.5624,0,0,0,2042.7871,966.3516Z" transform="translate(0 0)"/><path class="cls-4" d="M2066.7549,971.3555a10.772,10.772,0,0,1-5.584-1.291,7.6434,7.6434,0,0,1-3.1865-3.793,15.8459,15.8459,0,0,1-1.0274-6.0313v-9.166a15.971,15.971,0,0,1,1.0274-6.11,7.4883,7.4883,0,0,1,3.2129-3.74,10.9839,10.9839,0,0,1,5.5576-1.2641,10.04,10.04,0,0,1,5.6631,1.37,7.4706,7.4706,0,0,1,2.8965,3.9775,20.2082,20.2082,0,0,1,.87,6.3477v4.3193h-12.1162v6.0049a8.4233,8.4233,0,0,0,.29,2.4238,2.4121,2.4121,0,0,0,.9219,1.3692,2.6854,2.6854,0,0,0,1.5273.4219,2.43,2.43,0,0,0,1.5274-.4483,2.531,2.531,0,0,0,.8427-1.3174,7.6476,7.6476,0,0,0,.2637-2.1855v-2.5293h6.69v2.0547q0,4.6377-2.3183,7.1113Q2071.4947,971.3575,2066.7549,971.3555Zm-2.6865-18.9121h5.373v-2.8965a10.08,10.08,0,0,0-.2637-2.5547,2.5755,2.5755,0,0,0-.8427-1.4219,2.6173,2.6173,0,0,0-1.6329-.4482,2.3332,2.3332,0,0,0-1.5273.4736,2.8119,2.8119,0,0,0-.8428,1.58,14.4071,14.4071,0,0,0-.2636,3.1611Z" transform="translate(0 0)"/><path class="cls-4" d="M2081.1885,970.8809V940.4336h7.164v4.6885a13.1019,13.1019,0,0,1,3.16-3.8721,5.6673,5.6673,0,0,1,3.4775-1.1851,5.0713,5.0713,0,0,1,.5528.0264q.2373.0272.5527.0786v7.4278a9.2866,9.2866,0,0,0-1.3955-.4473,6.5945,6.5945,0,0,0-1.5537-.1856,4.98,4.98,0,0,0-2.5811.6856,7.1672,7.1672,0,0,0-2.2129,2.2656v20.9649Z" transform="translate(0 0)"/><path class="cls-4" d="M972.0371,675.1309,960.0762,634.166l7.6972-2.3926L982.33,658.1963,979.5938,628.1l7.4453-2.3144,13.42,40.5117-5.5342,1.72-9.4062-28.1333,3.0185,30.1191L984.06,671.394l-14.7188-26.5922,8.2793,28.5937Z" transform="translate(0 0)"/><path class="cls-4" d="M1028.8828,666.3433a13.6112,13.6112,0,0,1-3.2539-.9742,29.9581,29.9581,0,0,1-3.67-1.8662,27.6177,27.6177,0,0,1-3.334-2.3008,1.8512,1.8512,0,0,1-.4141.1836l-.4765.1485a13.4733,13.4733,0,0,1-7.3926.5322,9.3112,9.3112,0,0,1-5.11-3.4863,21.7014,21.7014,0,0,1-3.3271-6.7988l-4.7383-15.2422a21.0254,21.0254,0,0,1-1.0889-7.4121,9.0673,9.0673,0,0,1,2.2725-5.6436,13.8256,13.8256,0,0,1,6.4063-3.7012,14.061,14.061,0,0,1,7.4775-.6142,9.0751,9.0751,0,0,1,5.0723,3.3613,21.0956,21.0956,0,0,1,3.3017,6.7231l4.7539,15.2925a24.3832,24.3832,0,0,1,1.0879,5.4541,11.8535,11.8535,0,0,1-.5351,4.6626,8.7416,8.7416,0,0,1-2.4844,3.7232q.873.5016,1.8115,1.0366t1.8467.9707a9.2767,9.2767,0,0,0,1.6865.6348Zm-12.8535-10.2925a4.2618,4.2618,0,0,0,2.5176-1.6651,4.1586,4.1586,0,0,0,.5176-2.5878,15.259,15.259,0,0,0-.65-3.1631l-5.8321-18.7632a14.8327,14.8327,0,0,0-1.2568-2.9741,4.0053,4.0053,0,0,0-1.87-1.7637,4.3667,4.3667,0,0,0-3.01.0806,4.2574,4.2574,0,0,0-2.4736,1.6245,3.8623,3.8623,0,0,0-.5186,2.5053,16.1426,16.1426,0,0,0,.6778,3.1538l5.832,18.7637a16.5859,16.5859,0,0,0,1.2305,2.9829,4.0185,4.0185,0,0,0,1.87,1.8462A4.1666,4.1666,0,0,0,1016.0293,656.0508Z" transform="translate(0 0)"/><path class="cls-4" d="M1038.74,654.3984l-10.96-35.2636-6.49,2.0175-1.7041-5.4829,20.3223-6.3169,1.7051,5.4829-6.3887,1.9859,10.96,35.2632Z" transform="translate(0 0)"/><path class="cls-4" d="M1060.3711,647.6748l-10.96-35.2627-6.49,2.0166-1.7041-5.4824,20.3223-6.3174,1.705,5.4834-6.3886,1.9854,10.96,35.2636Z" transform="translate(0 0)"/><path class="cls-4" d="M1090.1494,638.4194l-12.665-40.7461,11.9726-3.7216a12.1382,12.1382,0,0,1,6.3838-.4947,8.436,8.436,0,0,1,4.5967,2.9014,17.0154,17.0154,0,0,1,3.0293,5.9268,13.7408,13.7408,0,0,1,.6338,6.8359,8.476,8.476,0,0,1-2.6944,4.7266,14.5,14.5,0,0,1-5.416,2.8974l-4.0234,1.251,5.6279,18.1094Zm.19-25.6548,2.8174-.8759a7.347,7.347,0,0,0,2.9639-1.5557,3.2417,3.2417,0,0,0,.98-2.3467,11.747,11.747,0,0,0-.6426-3.5786,16.9137,16.9137,0,0,0-1.4453-3.4951,3.2349,3.2349,0,0,0-2.041-1.5991,7.1,7.1,0,0,0-3.5987.4013l-2.8174.876Z" transform="translate(0 0)"/><path class="cls-4" d="M1121.0254,629.3184a4.5926,4.5926,0,0,1-3.0908-.0044,5.2058,5.2058,0,0,1-2.3448-1.8638,10.1871,10.1871,0,0,1-1.4794-2.9878l-7.1924-23.14,6.8408-2.1265,6.8017,21.8823a4.2367,4.2367,0,0,0,1.0606,1.9038,1.7555,1.7555,0,0,0,1.8115.2373,3.4723,3.4723,0,0,0,1.4092-.88,11.9944,11.9944,0,0,0,1.2373-1.4326l-7.2393-23.29,6.8418-2.127,9.0372,29.0762-6.8418,2.126-.8594-2.7666a14.1783,14.1783,0,0,1-2.501,3.3149A8.51,8.51,0,0,1,1121.0254,629.3184Z" transform="translate(0 0)"/><path class="cls-4" d="M1152.667,619.4834a6.5866,6.5866,0,0,1-3.2529.1841,13.4108,13.4108,0,0,1-3.1934-1.0484l.6719,2.1631-6.8418,2.1265-12.6641-40.7461,6.8418-2.1265,4.3145,13.8838a11.4031,11.4031,0,0,1,2.14-2.789,7.4793,7.4793,0,0,1,2.9678-1.7217,5.63,5.63,0,0,1,3.501-.0957,6.42,6.42,0,0,1,2.7041,1.7793,12.3864,12.3864,0,0,1,1.9658,2.8647,21.0933,21.0933,0,0,1,1.2861,3.1587l3.0645,9.8594a19.821,19.821,0,0,1,.9463,5.4429,8.58,8.58,0,0,1-.99,4.4448A5.6829,5.6829,0,0,1,1152.667,619.4834Zm-4.1006-3.9653a1.9749,1.9749,0,0,0,1.4082-1.2378,4.5941,4.5941,0,0,0,.0947-2.1807,19.924,19.924,0,0,0-.6611-2.7461l-3.2363-10.4131a14.2242,14.2242,0,0,0-.959-2.3769,4.0385,4.0385,0,0,0-1.2695-1.5088,2.0721,2.0721,0,0,0-1.8379-.146,3.6222,3.6222,0,0,0-1.4434.8623,11.9915,11.9915,0,0,0-1.1494,1.2681l5.707,18.36a7.135,7.135,0,0,0,1.667.31A4.5887,4.5887,0,0,0,1148.5664,615.5181Z" transform="translate(0 0)"/><path class="cls-4" d="M1164.4463,615.3262,1151.7812,574.58l6.793-2.1113,12.6641,40.746Z" transform="translate(0 0)"/><path class="cls-4" d="M1166.3975,577.76l-1.7666-5.6841,6.8408-2.1265,1.7666,5.6841Zm10.4755,33.7041-9.0371-29.0757,6.8409-2.1265,9.0371,29.0757Z" transform="translate(0 0)"/><path class="cls-4" d="M1197.1846,605.6465a9.5616,9.5616,0,0,1-6.6455-.0855,11.3039,11.3039,0,0,1-5.1524-4.687l4.47-3.541a10.04,10.04,0,0,0,2.7354,3.1216,3.3452,3.3452,0,0,0,3.0068.4448,2.576,2.576,0,0,0,1.6231-1.167,2.3486,2.3486,0,0,0,.0879-1.8471,3.7464,3.7464,0,0,0-1.41-1.962,16.4654,16.4654,0,0,0-3.2471-1.6655l-4.4443-1.873a18.7768,18.7768,0,0,1-4.1494-2.4346,7.9094,7.9094,0,0,1-2.5332-3.9834,7.3677,7.3677,0,0,1,1.9766-7.9238,9.8084,9.8084,0,0,1,3.9111-2.2364,8.12,8.12,0,0,1,6.3076.3282,10.2826,10.2826,0,0,1,4.4395,4.6059l-3.8838,3.3032a10.8366,10.8366,0,0,0-1.4248-2.0117,5.1709,5.1709,0,0,0-1.7569-1.3022,2.7289,2.7289,0,0,0-1.9638-.1065,2.3318,2.3318,0,0,0-1.4815,1.1773,2.402,2.402,0,0,0-.1123,1.8555,2.9619,2.9619,0,0,0,1.2764,1.5341,16.9734,16.9734,0,0,0,2.7285,1.4141l4.5723,2.1089A28.3723,28.3723,0,0,1,1199,590.1885a11.5987,11.5987,0,0,1,2.5654,2.0429,7.7419,7.7419,0,0,1,1.7285,3.0767,7.84,7.84,0,0,1,.1807,4.5772,7.4712,7.4712,0,0,1-2.2627,3.5444A10.7535,10.7535,0,0,1,1197.1846,605.6465Z" transform="translate(0 0)"/><path class="cls-4" d="M1209.3672,601.3638l-12.6641-40.7461,6.8418-2.1265,4.4863,14.4365a12.5307,12.5307,0,0,1,2.5606-3.3877,9.3309,9.3309,0,0,1,3.6328-2.0673,4.466,4.466,0,0,1,3.0908.0048,5.3991,5.3991,0,0,1,2.2862,1.854,10.1309,10.1309,0,0,1,1.4873,3.0132l7.1923,23.14-6.8408,2.1264-6.77-21.7822a4.2933,4.2933,0,0,0-1.0273-1.8867,1.7161,1.7161,0,0,0-1.7783-.22,4.0607,4.0607,0,0,0-1.46.8955,8.2661,8.2661,0,0,0-1.3564,1.58l7.1611,23.0395Z" transform="translate(0 0)"/><path class="cls-4" d="M1242.2559,591.6377a10.7682,10.7682,0,0,1-5.7149.4248,7.6507,7.6507,0,0,1-4.1689-2.6758,15.85,15.85,0,0,1-2.7715-5.4551l-2.7207-8.7529a15.9677,15.9677,0,0,1-.832-6.14,7.4837,7.4837,0,0,1,1.957-4.5254,10.9915,10.9915,0,0,1,4.9326-2.857,10.0385,10.0385,0,0,1,5.8145-.3735,7.4734,7.4734,0,0,1,3.9462,2.9385,20.2019,20.2019,0,0,1,2.7149,5.8032l1.2822,4.1255-11.57,3.5962,1.7832,5.7344a8.3891,8.3891,0,0,0,.9961,2.228,2.413,2.413,0,0,0,1.2861,1.0342,2.6891,2.6891,0,0,0,1.584-.0513,2.4329,2.4329,0,0,0,1.3252-.88,2.5338,2.5338,0,0,0,.4141-1.5083,7.68,7.68,0,0,0-.3965-2.1655l-.751-2.415,6.3887-1.9859.61,1.9624q1.3755,4.4275-.1035,7.48T1242.2559,591.6377Zm-8.1778-17.2622,5.1309-1.5947-.86-2.7662a10.055,10.055,0,0,0-1.0107-2.3618,2.58,2.58,0,0,0-1.2266-1.1079,2.6216,2.6216,0,0,0-1.6924.0572,2.3374,2.3374,0,0,0-1.3173.9057,2.8114,2.8114,0,0,0-.336,1.76,14.467,14.467,0,0,0,.6865,3.0962Z" transform="translate(0 0)"/><path class="cls-4" d="M1255.8994,586.9l-9.0371-29.0752,6.8408-2.127,1.3916,4.4776a13.1305,13.1305,0,0,1,1.8682-4.6353,5.6679,5.6679,0,0,1,2.97-2.164,5.1112,5.1112,0,0,1,.5352-.1392c.1572-.0293.3408-.06.5517-.0889l2.2051,7.0933a9.4608,9.4608,0,0,0-1.4668-.0137,6.6223,6.6223,0,0,0-1.5381.2847,4.9788,4.9788,0,0,0-2.2607,1.4209,7.176,7.176,0,0,0-1.4414,2.8193l6.2226,20.0215Z" transform="translate(0 0)"/><g class="cls-2"><rect class="cls-3" x="587.9415" y="566.8524" width="163.0585" height="124.7031" rx="7" ry="7"/></g><g class="cls-12"><path class="cls-13" d="M648.6142,621.948V604.863a20.7461,20.7461,0,0,1,41.4921,0v16.4748" transform="translate(0 0)"/><path class="cls-4" d="M689.4371,618.4247H649.2835a8.0543,8.0543,0,0,0-8.0308,8.0307V666.609a8.0544,8.0544,0,0,0,8.0308,8.0308h40.1536a8.0544,8.0544,0,0,0,8.0307-8.0308V626.4554A8.0543,8.0543,0,0,0,689.4371,618.4247ZM660.66,660.2514,665.82,643.26a6.0231,6.0231,0,1,1,6.4119,0l5.1594,16.9919Z" transform="translate(0 0)"/></g><path class="cls-4" d="M1331.2246,384.8813l.7373-42.6689h8.06l6.0576,29.5522,6.3213-29.5522h7.7969l.79,42.6689h-5.7949l-.6319-29.6577-6.0576,29.6577h-4.6884l-6.1631-29.7631-.58,29.7631Z" transform="translate(0 0)"/><path class="cls-4" d="M1388.1162,393.3623a13.638,13.638,0,0,1-2.8183-1.896,30.1312,30.1312,0,0,1-2.95-2.8711,27.7925,27.7925,0,0,1-2.502-3.187,1.8649,1.8649,0,0,1-.4482.0527h-.5a13.4684,13.4684,0,0,1-7.2168-1.686,9.31,9.31,0,0,1-3.8457-4.8462,21.7139,21.7139,0,0,1-1.1592-7.4805V355.4868a21.0425,21.0425,0,0,1,1.1592-7.4009,9.0717,9.0717,0,0,1,3.8457-4.7148,13.8217,13.8217,0,0,1,7.2168-1.6328,14.0625,14.0625,0,0,1,7.3222,1.6328,9.0816,9.0816,0,0,1,3.8457,4.7148,21.09,21.09,0,0,1,1.1582,7.4009V371.501a24.3448,24.3448,0,0,1-.5791,5.5312,11.8348,11.8348,0,0,1-1.8965,4.2935,8.7407,8.7407,0,0,1-3.4765,2.8183q.684.7383,1.4219,1.5274t1.4755,1.4751a9.2805,9.2805,0,0,0,1.4219,1.1064Zm-9.2187-13.6435a4.26,4.26,0,0,0,2.8974-.8428,4.16,4.16,0,0,0,1.2637-2.3179,15.3186,15.3186,0,0,0,.3164-3.2134V353.6958a14.8623,14.8623,0,0,0-.3164-3.2134,4.0009,4.0009,0,0,0-1.2637-2.2387,4.36,4.36,0,0,0-2.8974-.8165,4.2642,4.2642,0,0,0-2.8448.8165,3.8671,3.8671,0,0,0-1.2382,2.2387,16.1656,16.1656,0,0,0-.2891,3.2134v19.6489a16.6613,16.6613,0,0,0,.2891,3.2134,4.0241,4.0241,0,0,0,1.2382,2.3179A4.1669,4.1669,0,0,0,1378.8975,379.7188Z" transform="translate(0 0)"/><path class="cls-4" d="M1401.0752,384.8813V347.9541h-6.7959v-5.7417h21.2822v5.7417h-6.69v36.9272Z" transform="translate(0 0)"/><path class="cls-4" d="M1423.7266,384.8813V347.9541h-6.7959v-5.7417h21.2822v5.7417h-6.69v36.9272Z" transform="translate(0 0)"/><path class="cls-4" d="M1454.91,384.8813V342.2124h10.4834a23.0112,23.0112,0,0,1,5.1357.5264,10.4358,10.4358,0,0,1,3.9512,1.7651,7.9487,7.9487,0,0,1,2.5547,3.3447,13.6876,13.6876,0,0,1,.8955,5.3208,12.3135,12.3135,0,0,1-.711,4.4248,6.6793,6.6793,0,0,1-2.081,2.9234,7.5824,7.5824,0,0,1-3.4239,1.4487,8.83,8.83,0,0,1,4.1875,1.7647,8.08,8.08,0,0,1,2.4766,3.5034,14.7942,14.7942,0,0,1,.8164,5.2148,17.4353,17.4353,0,0,1-.7637,5.3994,9.94,9.94,0,0,1-2.2656,3.8985,9.5043,9.5043,0,0,1-3.74,2.3442,15.7468,15.7468,0,0,1-5.2412.79Zm7.7968-25.2329h2.6338a7.6357,7.6357,0,0,0,3.5821-.6845,3.6989,3.6989,0,0,0,1.7646-2.1075,10.9124,10.9124,0,0,0,.501-3.582,6.6978,6.6978,0,0,0-.7647-3.5029,3.85,3.85,0,0,0-2.291-1.6856,14.1815,14.1815,0,0,0-3.8984-.4477h-1.5274Zm0,19.7544h2.95q3.5289,0,4.793-1.7119a8.9357,8.9357,0,0,0,1.2646-5.2944,12.0926,12.0926,0,0,0-.6054-4.1875,4.4616,4.4616,0,0,0-2.002-2.397,7.525,7.525,0,0,0-3.7138-.79h-2.6866Z" transform="translate(0 0)"/><path class="cls-4" d="M1483.9365,384.8813V354.4336h7.1641v4.6885a13.1084,13.1084,0,0,1,3.16-3.8721,5.6676,5.6676,0,0,1,3.4776-1.1851,5.0707,5.0707,0,0,1,.5527.0264q.2373.0272.5528.0786v7.4278a9.4029,9.4029,0,0,0-1.3956-.4478,6.6192,6.6192,0,0,0-1.5537-.1846,4.9793,4.9793,0,0,0-2.581.6851,7.1735,7.1735,0,0,0-2.2129,2.2651v20.9658Z" transform="translate(0 0)"/><path class="cls-4" d="M1511.5918,385.3555a10.908,10.908,0,0,1-5.4785-1.2378,7.7263,7.7263,0,0,1-3.24-3.6084,13.7955,13.7955,0,0,1-1.0791-5.7422V364.5479a13.7981,13.7981,0,0,1,1.0791-5.7422,7.7305,7.7305,0,0,1,3.24-3.6084,10.908,10.908,0,0,1,5.4785-1.2378,11.0646,11.0646,0,0,1,5.5049,1.2378,7.6946,7.6946,0,0,1,3.2656,3.6084,13.7976,13.7976,0,0,1,1.08,5.7422v10.2192a13.795,13.795,0,0,1-1.08,5.7422,7.69,7.69,0,0,1-3.2656,3.6084A11.0646,11.0646,0,0,1,1511.5918,385.3555Zm.0527-4.9517a2.2161,2.2161,0,0,0,1.791-.685,3.5646,3.5646,0,0,0,.7374-1.87,19.7981,19.7981,0,0,0,.1582-2.6074V364.0737a19.21,19.21,0,0,0-.1582-2.5815,3.6948,3.6948,0,0,0-.7374-1.87,2.6113,2.6113,0,0,0-3.582,0,3.8552,3.8552,0,0,0-.7637,1.87,16.383,16.383,0,0,0-.1845,2.5815v11.1675a16.882,16.882,0,0,0,.1845,2.6074,3.7107,3.7107,0,0,0,.7637,1.87A2.2136,2.2136,0,0,0,1511.6445,380.4038Z" transform="translate(0 0)"/><path class="cls-4" d="M1526.3936,384.8813V342.2124h7.164v24.4951l7.8486-12.2739h7.7969l-7.6386,12.2212,7.48,18.2265h-7.5332l-5.5312-15.0131-2.4229,3.3715v11.6416Z" transform="translate(0 0)"/><path class="cls-4" d="M1561.0557,385.3555a10.7757,10.7757,0,0,1-5.584-1.2906,7.6487,7.6487,0,0,1-3.1865-3.7929,15.85,15.85,0,0,1-1.0274-6.0318v-9.166a15.9693,15.9693,0,0,1,1.0274-6.11,7.4881,7.4881,0,0,1,3.2128-3.74,10.9846,10.9846,0,0,1,5.5577-1.2641,10.04,10.04,0,0,1,5.6631,1.37,7.471,7.471,0,0,1,2.8964,3.9771,20.2079,20.2079,0,0,1,.87,6.3476v4.32h-12.1163v6.0054a8.4132,8.4132,0,0,0,.29,2.4229,2.41,2.41,0,0,0,.9219,1.37,2.6811,2.6811,0,0,0,1.5273.4214,2.4293,2.4293,0,0,0,1.5273-.4478,2.5317,2.5317,0,0,0,.8428-1.3169,7.6562,7.6562,0,0,0,.2637-2.186v-2.5288h6.69v2.0547q0,4.6362-2.3183,7.1113Q1565.7955,385.3565,1561.0557,385.3555Zm-2.6866-18.9117h5.3731v-2.8969a10.0845,10.0845,0,0,0-.2637-2.5552,2.5811,2.5811,0,0,0-.8428-1.4219,2.62,2.62,0,0,0-1.6328-.4477,2.336,2.336,0,0,0-1.5273.4736,2.81,2.81,0,0,0-.8428,1.5806,14.3977,14.3977,0,0,0-.2637,3.1606Z" transform="translate(0 0)"/><path class="cls-4" d="M1575.49,384.8813V354.4336h7.1641v4.6885a13.1069,13.1069,0,0,1,3.16-3.8721,5.6671,5.6671,0,0,1,3.4775-1.1851,5.0694,5.0694,0,0,1,.5527.0264q.2373.0272.5528.0786v7.4278a9.4053,9.4053,0,0,0-1.3955-.4478,6.6207,6.6207,0,0,0-1.5538-.1846,4.9793,4.9793,0,0,0-2.581.6851,7.1746,7.1746,0,0,0-2.2129,2.2651v20.9658Z" transform="translate(0 0)"/><line class="cls-11" x1="2664.5" y1="749.5" x2="1818.5" y2="505.5"/><g class="cls-2"><rect class="cls-3" x="2685.7959" y="627.2499" width="342.2041" height="261.3443" rx="7" ry="7"/></g><path class="cls-4" d="M2183.0576,594.3931l19.5352-38.8819,8.0254,2.2051-3.0772,43.4053-6.959-1.9121.9844-9.9453-7.1621-1.9678-4.2861,9.0371Zm13.4209-11.6631,5.5879,1.5361,1.9512-18.0381Z" transform="translate(0 0)"/><path class="cls-4" d="M2211.4512,602.1958l11.3066-41.1426,12.09,3.3223a12.1315,12.1315,0,0,1,5.6425,3.0254,8.4388,8.4388,0,0,1,2.3067,4.9219,17.0118,17.0118,0,0,1-.6446,6.625A13.7759,13.7759,0,0,1,2239,585.0464a8.47,8.47,0,0,1-4.8184,2.5273,14.4946,14.4946,0,0,1-6.124-.48l-4.0625-1.1162-5.0254,18.2851Zm13.9951-21.502,2.8447.7813a7.3371,7.3371,0,0,0,3.335.2891,3.2431,3.2431,0,0,0,2.0908-1.4473,11.7442,11.7442,0,0,0,1.3887-3.3613,16.9155,16.9155,0,0,0,.6679-3.7227,3.24,3.24,0,0,0-.8564-2.4473,7.1124,7.1124,0,0,0-3.2471-1.6025l-2.8457-.7822Z" transform="translate(0 0)"/><path class="cls-4" d="M2238.22,609.5522l11.3067-41.1435,7.416,2.0381L2245.6357,611.59Z" transform="translate(0 0)"/><line class="cls-14" x1="2758" y1="751.2784" x2="2851.5842" y2="751.2784"/><line class="cls-14" x1="2765.4536" y1="772.811" x2="2859.0378" y2="772.811"/><line class="cls-14" x1="2782.0172" y1="733.0584" x2="2875.6014" y2="733.0584"/><path class="cls-15" d="M2917.345,743.2717c10.5805,5.6429,18.6922,10.7306,18.6922,25.0054S2922.75,793,2906.36,793h-99.3533c-16.39,0-29.677-11.572-29.677-25.8467s12.3439-26.7031,34.21-24.587c0,0,10.5805-25.3931,38.09-18.3395l.5011-.2791c5.4606-10.427,17.8673-17.7077,32.2984-17.7077,19.4781,0,35.2683,13.2637,35.2683,29.6254a25.187,25.187,0,0,1-.8263,6.4045Z" transform="translate(0 0)"/><path class="cls-4" d="M2814.6465,984.51q-6.2314,0-9.7656-2.4493a12.7659,12.7659,0,0,1-4.9346-6.6855,31.0613,31.0613,0,0,1-1.3994-9.7646V945.38a32.4263,32.4263,0,0,1,1.3994-10.08,12.0806,12.0806,0,0,1,4.9346-6.5791q3.5346-2.31,9.7656-2.31,5.88,0,9.2051,1.9951a10.978,10.978,0,0,1,4.7246,5.7051,24.3122,24.3122,0,0,1,1.4,8.61v4.76h-9.9405v-4.9a35.2241,35.2241,0,0,0-.2451-4.34,5.4,5.4,0,0,0-1.33-3.1152,4.9958,4.9958,0,0,0-3.7441-1.1543,5.3131,5.3131,0,0,0-3.8857,1.2246,5.9048,5.9048,0,0,0-1.5752,3.29,27.9175,27.9175,0,0,0-.35,4.6552v24.64a21.7752,21.7752,0,0,0,.49,5.0752,5.2553,5.2553,0,0,0,1.7851,3.01,5.5833,5.5833,0,0,0,3.5352,1.0147,4.7061,4.7061,0,0,0,3.6738-1.2246,6.0176,6.0176,0,0,0,1.3653-3.2549,33.54,33.54,0,0,0,.28-4.55v-5.11h9.9405v4.55a27.5362,27.5362,0,0,1-1.33,8.9248,11.6081,11.6081,0,0,1-4.6553,6.0909Q2820.666,984.51,2814.6465,984.51Z" transform="translate(0 0)"/><path class="cls-4" d="M2837.1855,983.74v-56.7h13.37q6.93,0,10.8154,1.8907A11.02,11.02,0,0,1,2866.9,934.74a25.8858,25.8858,0,0,1,1.6445,9.9405V965.4a27.7086,27.7086,0,0,1-1.6445,10.2549,11.4649,11.4649,0,0,1-5.46,6.09q-3.8159,1.9952-10.4648,1.9951Zm10.3594-7.21h3.15q3.5714,0,5.11-1.26a5.57,5.57,0,0,0,1.89-3.6748,42.162,42.162,0,0,0,.35-5.915v-21.7a25.2968,25.2968,0,0,0-.4892-5.53,4.7421,4.7421,0,0,0-2.03-3.08,9.5849,9.5849,0,0,0-4.97-.98h-3.0108Z" transform="translate(0 0)"/><path class="cls-4" d="M2876.1758,983.74v-56.7h7.209l13.791,32.34V927.04h8.539v56.7h-6.8593l-13.86-33.88v33.88Z" transform="translate(0 0)"/><path class="cls-4" d="M651.541,556.1006a10.3268,10.3268,0,0,1-5.26-1.2285,7.73,7.73,0,0,1-3.1894-3.6,15.4455,15.4455,0,0,1-1.208-5.82l5.4756-1.0782a16.8937,16.8937,0,0,0,.4961,3.5786,5.1731,5.1731,0,0,0,1.25,2.3931,3.0019,3.0019,0,0,0,2.2207.84,2.4884,2.4884,0,0,0,2.1982-.9267,4.008,4.008,0,0,0,.6465-2.35,6.3575,6.3575,0,0,0-1.0342-3.751,16.1563,16.1563,0,0,0-2.76-2.9316l-4.3975-3.88a13.1972,13.1972,0,0,1-2.9531-3.5571,9.7946,9.7946,0,0,1-1.1-4.85,8.2749,8.2749,0,0,1,2.415-6.3809,9.3144,9.3144,0,0,1,6.5957-2.2417,9.7962,9.7962,0,0,1,4.0957.7544,6.51,6.51,0,0,1,2.6084,2.0908,9.42,9.42,0,0,1,1.4443,3.04,17.91,17.91,0,0,1,.6036,3.6l-5.4317.9482a18.5772,18.5772,0,0,0-.3672-2.9316,4.0737,4.0737,0,0,0-.9912-2.0264,2.7872,2.7872,0,0,0-2.0908-.7329,2.6472,2.6472,0,0,0-2.1777.9272,3.5349,3.5349,0,0,0-.7539,2.3067,5.29,5.29,0,0,0,.7324,2.91,11.34,11.34,0,0,0,2.1133,2.35l4.3544,3.837a18.068,18.068,0,0,1,3.6856,4.247,10.8394,10.8394,0,0,1,1.5312,5.8848,8.8531,8.8531,0,0,1-1.1,4.4409,7.8823,7.8823,0,0,1-3.0615,3.04A9.24,9.24,0,0,1,651.541,556.1006Z" transform="translate(0 0)"/><path class="cls-4" d="M672.4941,556.1006a10.3262,10.3262,0,0,1-5.26-1.2285,7.7434,7.7434,0,0,1-3.1905-3.6,15.4482,15.4482,0,0,1-1.207-5.82l5.4756-1.0782a16.9,16.9,0,0,0,.4961,3.5786,5.174,5.174,0,0,0,1.25,2.3931,3.0019,3.0019,0,0,0,2.2207.84,2.4884,2.4884,0,0,0,2.1982-.9267,4.008,4.008,0,0,0,.6465-2.35,6.3575,6.3575,0,0,0-1.0342-3.751,16.1563,16.1563,0,0,0-2.76-2.9316l-4.3975-3.88a13.1972,13.1972,0,0,1-2.9531-3.5571,9.8054,9.8054,0,0,1-1.1-4.85,8.2753,8.2753,0,0,1,2.415-6.3809,9.3144,9.3144,0,0,1,6.5957-2.2417,9.7962,9.7962,0,0,1,4.0957.7544,6.51,6.51,0,0,1,2.6084,2.0908,9.4205,9.4205,0,0,1,1.4444,3.04,17.91,17.91,0,0,1,.6035,3.6l-5.4317.9482a18.59,18.59,0,0,0-.3671-2.9316,4.0746,4.0746,0,0,0-.9913-2.0264,2.7871,2.7871,0,0,0-2.0908-.7329,2.6472,2.6472,0,0,0-2.1777.9272,3.5354,3.5354,0,0,0-.7539,2.3067,5.29,5.29,0,0,0,.7324,2.91,11.34,11.34,0,0,0,2.1133,2.35l4.3545,3.837a18.07,18.07,0,0,1,3.6855,4.247,10.84,10.84,0,0,1,1.5313,5.8848,8.8542,8.8542,0,0,1-1.1,4.4409,7.8819,7.8819,0,0,1-3.0616,3.04A9.2392,9.2392,0,0,1,672.4941,556.1006Z" transform="translate(0 0)"/><path class="cls-4" d="M684.6523,555.6265V520.7041h6.3809V551.229h8.45v4.3975Z" transform="translate(0 0)"/><path class="cls-4" d="M2770.041,864.3765a10.7737,10.7737,0,0,1-5.49-1.2827,8.0713,8.0713,0,0,1-3.3291-3.7574,16.1094,16.1094,0,0,1-1.2608-6.0752l5.7149-1.125a17.68,17.68,0,0,0,.5176,3.7354,5.4085,5.4085,0,0,0,1.3056,2.4971,3.132,3.132,0,0,0,2.3174.8779,2.599,2.599,0,0,0,2.2949-.9678,4.1853,4.1853,0,0,0,.6748-2.4526,6.6376,6.6376,0,0,0-1.08-3.9151,16.8823,16.8823,0,0,0-2.88-3.06l-4.59-4.05a13.7938,13.7938,0,0,1-3.083-3.7124,10.234,10.234,0,0,1-1.1474-5.0625,8.6388,8.6388,0,0,1,2.5205-6.66,9.7222,9.7222,0,0,1,6.8847-2.34,10.2314,10.2314,0,0,1,4.2754.7876,6.808,6.808,0,0,1,2.7227,2.1826,9.8489,9.8489,0,0,1,1.5068,3.1723,18.7088,18.7088,0,0,1,.63,3.7574l-5.67.99a19.48,19.48,0,0,0-.3819-3.06,4.2687,4.2687,0,0,0-1.0351-2.1152,2.9077,2.9077,0,0,0-2.1826-.7646,2.7606,2.7606,0,0,0-2.2725.9672,3.69,3.69,0,0,0-.7881,2.4078,5.52,5.52,0,0,0,.7656,3.0371,11.8351,11.8351,0,0,0,2.2051,2.4526l4.5449,4.0049a18.8561,18.8561,0,0,1,3.8477,4.4326,11.32,11.32,0,0,1,1.5967,6.1426,9.2279,9.2279,0,0,1-1.1475,4.6348,8.2238,8.2238,0,0,1-3.1943,3.1728A9.65,9.65,0,0,1,2770.041,864.3765Z" transform="translate(0 0)"/><path class="cls-4" d="M2790.5156,864.2861a8.9884,8.9884,0,0,1-4.8379-1.1474,6.574,6.574,0,0,1-2.6543-3.2847,13.9152,13.9152,0,0,1-.833-5.0625v-7.83a14.0178,14.0178,0,0,1,.833-5.13,6.4337,6.4337,0,0,1,2.6778-3.24,9.1544,9.1544,0,0,1,4.8144-1.125,10.3288,10.3288,0,0,1,4.5674.8775,5.37,5.37,0,0,1,2.5879,2.6552,10.8153,10.8153,0,0,1,.81,4.4776v2.16h-5.76v-2.2949a8.9642,8.9642,0,0,0-.2021-2.1377,1.8578,1.8578,0,0,0-.6983-1.125,2.2782,2.2782,0,0,0-1.3047-.3374,1.926,1.926,0,0,0-1.3047.4277,2.4207,2.4207,0,0,0-.6972,1.3726,13.03,13.03,0,0,0-.2032,2.61v9.54a7.2092,7.2092,0,0,0,.54,3.3975,1.86,1.86,0,0,0,1.71.8774,1.7888,1.7888,0,0,0,2.003-1.5976,9.9586,9.9586,0,0,0,.1572-1.9122v-2.79h5.76v2.4746a10.7881,10.7881,0,0,1-.8321,4.4551,5.645,5.645,0,0,1-2.61,2.7676A9.7858,9.7858,0,0,1,2790.5156,864.2861Z" transform="translate(0 0)"/><path class="cls-4" d="M2802.5752,863.8813v-36.45h6.12v12.915a10.7143,10.7143,0,0,1,2.9473-2.1148,7.9755,7.9755,0,0,1,3.4883-.7651,3.8122,3.8122,0,0,1,2.5195.7876,4.6193,4.6193,0,0,1,1.3955,2.0923,8.6783,8.6783,0,0,1,.4492,2.835v20.7h-6.1191V844.3965a3.6835,3.6835,0,0,0-.36-1.8,1.4674,1.4674,0,0,0-1.3955-.63,3.4629,3.4629,0,0,0-1.417.36,7.035,7.035,0,0,0-1.5078.9453v20.61Z" transform="translate(0 0)"/><path class="cls-4" d="M2831.87,864.2861a9.2048,9.2048,0,0,1-4.7695-1.102,6.5367,6.5367,0,0,1-2.7227-3.24,13.5533,13.5533,0,0,1-.8779-5.1523v-7.83a13.6585,13.6585,0,0,1,.8779-5.22,6.4,6.4,0,0,1,2.7451-3.1948,9.378,9.378,0,0,1,4.7471-1.08,8.5774,8.5774,0,0,1,4.8379,1.17,6.3875,6.3875,0,0,1,2.4746,3.3975,17.2827,17.2827,0,0,1,.7422,5.4228v3.69h-10.35v5.13a7.1888,7.1888,0,0,0,.248,2.07,2.0569,2.0569,0,0,0,.7872,1.17,2.2934,2.2934,0,0,0,1.3046.36,2.0787,2.0787,0,0,0,1.3057-.3828,2.1668,2.1668,0,0,0,.72-1.125,6.5689,6.5689,0,0,0,.2246-1.8672v-2.16h5.7149v1.7549a8.5647,8.5647,0,0,1-1.9795,6.0752Q2835.92,864.2873,2831.87,864.2861Zm-2.2949-16.1548h4.59v-2.475a8.6551,8.6551,0,0,0-.2246-2.1827,2.211,2.211,0,0,0-.72-1.2148,2.245,2.245,0,0,0-1.3955-.3823,1.993,1.993,0,0,0-1.3047.4048,2.4069,2.4069,0,0,0-.7207,1.35,12.3413,12.3413,0,0,0-.2246,2.7Z" transform="translate(0 0)"/><path class="cls-4" d="M2844.0645,863.8813v-26.01h5.8955v2.25a8.4568,8.4568,0,0,1,2.9248-2.0928,8.2883,8.2883,0,0,1,3.1953-.6523,4.7125,4.7125,0,0,1,2.6767.7646,4.43,4.43,0,0,1,1.6875,2.43,9.2047,9.2047,0,0,1,3.15-2.4526,8.3179,8.3179,0,0,1,3.42-.7422,4.4617,4.4617,0,0,1,2.4747.6972,4.7292,4.7292,0,0,1,1.71,2.07,8.2589,8.2589,0,0,1,.6309,3.4424v20.2949H2865.98V844.1265a3.1641,3.1641,0,0,0-.4951-2.0479,1.7614,1.7614,0,0,0-1.3946-.5625,3.8592,3.8592,0,0,0-1.5976.4053,5.5278,5.5278,0,0,0-1.5977,1.125v20.8349H2855.09V844.1265a3.0633,3.0633,0,0,0-.5175-2.0479,1.8352,1.8352,0,0,0-1.418-.5625,3.7107,3.7107,0,0,0-1.5742.4053,6.31,6.31,0,0,0-1.62,1.125v20.8349Z" transform="translate(0 0)"/><path class="cls-4" d="M2881.4141,864.2861a4.9624,4.9624,0,0,1-3.0147-.9223,6.103,6.103,0,0,1-1.9355-2.34,6.7878,6.7878,0,0,1-.6748-2.9477,8.0925,8.0925,0,0,1,3.2851-6.8848,16.8025,16.8025,0,0,1,3.375-1.9575q1.89-.832,3.8252-1.5073v-2.25a9.5329,9.5329,0,0,0-.1582-1.89,2.1668,2.1668,0,0,0-.585-1.17,1.8744,1.8744,0,0,0-1.3271-.4053,1.9827,1.9827,0,0,0-1.2373.36,1.957,1.957,0,0,0-.6748,1.0122,6.1339,6.1339,0,0,0-.2481,1.5073l-.09,1.5752-5.8047-.2251q.1349-4.4992,2.2276-6.6372t6.3671-2.1377q3.9156,0,5.6924,2.16a8.933,8.933,0,0,1,1.7774,5.85v12.0146q0,1.4407.0673,2.61.0689,1.17.1807,2.1147t.2022,1.665h-5.49q-.1347-.8994-.3369-2.0473t-.293-1.6875a6.6593,6.6593,0,0,1-1.71,2.8574A4.5744,4.5744,0,0,1,2881.4141,864.2861Zm2.25-4.5449a2.1978,2.1978,0,0,0,1.1025-.2925,4.28,4.28,0,0,0,.9229-.6972,3.6306,3.6306,0,0,0,.5849-.72v-7.2452q-.99.586-1.8682,1.17a8.6509,8.6509,0,0,0-1.5292,1.2823,5.0273,5.0273,0,0,0-.99,1.5078,4.8919,4.8919,0,0,0-.3379,1.89,4.0091,4.0091,0,0,0,.5625,2.2725A1.774,1.774,0,0,0,2883.6641,859.7412Z" transform="translate(0 0)"/><path class="cls-4" d="M2917.2334,864.3765a10.7737,10.7737,0,0,1-5.49-1.2827,8.0707,8.0707,0,0,1-3.3291-3.7574,16.1094,16.1094,0,0,1-1.2608-6.0752l5.7149-1.125a17.6872,17.6872,0,0,0,.5175,3.7354,5.4086,5.4086,0,0,0,1.3057,2.4971,3.132,3.132,0,0,0,2.3174.8779,2.599,2.599,0,0,0,2.2949-.9678,4.1853,4.1853,0,0,0,.6748-2.4526,6.637,6.637,0,0,0-1.08-3.9151,16.878,16.878,0,0,0-2.88-3.06l-4.59-4.05a13.7938,13.7938,0,0,1-3.083-3.7124,10.234,10.234,0,0,1-1.1475-5.0625,8.6389,8.6389,0,0,1,2.5206-6.66,9.7221,9.7221,0,0,1,6.8847-2.34,10.2314,10.2314,0,0,1,4.2754.7876,6.808,6.808,0,0,1,2.7227,2.1826,9.8489,9.8489,0,0,1,1.5068,3.1723,18.7159,18.7159,0,0,1,.63,3.7574l-5.67.99a19.48,19.48,0,0,0-.3819-3.06,4.27,4.27,0,0,0-1.0351-2.1152,2.9078,2.9078,0,0,0-2.1826-.7646,2.7606,2.7606,0,0,0-2.2725.9672,3.69,3.69,0,0,0-.7881,2.4078,5.52,5.52,0,0,0,.7656,3.0371,11.8351,11.8351,0,0,0,2.2051,2.4526l4.5449,4.0049a18.8561,18.8561,0,0,1,3.8477,4.4326,11.3212,11.3212,0,0,1,1.5967,6.1426,9.2279,9.2279,0,0,1-1.1475,4.6348,8.2238,8.2238,0,0,1-3.1943,3.1728A9.65,9.65,0,0,1,2917.2334,864.3765Z" transform="translate(0 0)"/><path class="cls-4" d="M2937.3936,864.1963a7.8691,7.8691,0,0,1-3.8926-.81,4.4446,4.4446,0,0,1-2.003-2.34,10.1889,10.1889,0,0,1-.5849-3.645v-15.48h-2.61v-4.05h2.61v-7.7852h6.165v7.7852h3.96v4.05h-3.96v14.94a2.5794,2.5794,0,0,0,.585,1.9126,2.4393,2.4393,0,0,0,1.7549.5625q.495,0,.9677-.0449t.9219-.09v4.68q-.7645.0894-1.7773.2027A19.5693,19.5693,0,0,1,2937.3936,864.1963Z" transform="translate(0 0)"/><path class="cls-4" d="M2954.8076,863.8813v-8.955h-10.89v-5.31l9.4941-22.185h7.2451v22.5454h3.7354v4.95h-3.7354v8.955Zm-5.67-13.9047h5.67v-15.84Z" transform="translate(0 0)"/><g class="cls-2"><rect class="cls-3" x="587.9415" y="1121.8524" width="163.0585" height="124.7031" rx="7" ry="7"/></g><path class="cls-4" d="M707.2813,1136.9619a2.8031,2.8031,0,0,0,0,5.6062,19.373,19.373,0,0,1,19.35,19.35,2.7993,2.7993,0,0,0,5.5986-.0075A24.9642,24.9642,0,0,0,707.2813,1136.9619Z" transform="translate(0 0)"/><path class="cls-4" d="M707.2812,1147.6605a2.8031,2.8031,0,0,0,0,5.6062,8.6417,8.6417,0,0,1,8.6434,8.6436,2.7956,2.7956,0,0,0,5.5911,0A14.2427,14.2427,0,0,0,707.2812,1147.6605Z" transform="translate(0 0)"/><circle class="cls-4" cx="707.2887" cy="1161.9027" r="3.7291"/><path class="cls-4" d="M743.1018,1161.903a35.87,35.87,0,0,0-35.8129-35.8135,2.8031,2.8031,0,1,0,0,5.6062,30.24,30.24,0,0,1,30.2143,30.2148,2.7993,2.7993,0,1,0,5.5986-.0075Z" transform="translate(0 0)"/><path class="cls-4" d="M612.874,1224.7324v-23.3349h5.5889a12.3387,12.3387,0,0,1,3.9892.5615,4.5884,4.5884,0,0,1,2.4776,1.916,6.8956,6.8956,0,0,1,.8506,3.6875,11.3055,11.3055,0,0,1-.26,2.5352,4.8235,4.8235,0,0,1-.8789,1.916,3.9614,3.9614,0,0,1-1.7139,1.2236l3.2559,11.4951H621.92l-2.8232-10.6885h-1.959v10.6885Zm4.2637-13.3672h1.3252a4.5227,4.5227,0,0,0,1.9726-.36,2.1041,2.1041,0,0,0,1.0518-1.1524,5.5367,5.5367,0,0,0,.3174-2.0312,4.43,4.43,0,0,0-.6485-2.6358,2.8967,2.8967,0,0,0-2.4628-.8789h-1.5557Z" transform="translate(0 0)"/><path class="cls-4" d="M628.9775,1224.7324v-23.3349H638.57v2.9384h-5.3291v6.7989h4.35v2.9668h-4.35v10.6308Z" transform="translate(0 0)"/><path class="cls-4" d="M640.9053,1224.7324v-23.3349h4.206v23.3349Z" transform="translate(0 0)"/><path class="cls-4" d="M648.7119,1224.7324v-23.3349h5.502a10.3719,10.3719,0,0,1,4.4511.7773,4.5381,4.5381,0,0,1,2.2754,2.3916,10.6486,10.6486,0,0,1,.6778,4.0908v8.5274a11.3977,11.3977,0,0,1-.6778,4.2207,4.7145,4.7145,0,0,1-2.247,2.5058,9.3819,9.3819,0,0,1-4.3067.8213Zm4.2637-2.9678h1.2959a3.3454,3.3454,0,0,0,2.1035-.5185,2.2936,2.2936,0,0,0,.7773-1.5117,17.3978,17.3978,0,0,0,.1446-2.4346v-8.9307a10.41,10.41,0,0,0-.2022-2.2763,1.9526,1.9526,0,0,0-.8349-1.2676,3.951,3.951,0,0,0-2.0459-.4033h-1.2383Z" transform="translate(0 0)"/><polyline class="cls-7" points="700.05 1134.5 599 1134 599 1235 736 1235 736 1169"/><path class="cls-4" d="M1859.8076,384.8813l-6.0586-42.6689h6.5322l3.5293,27.6558,4.4249-27.5508h5.32l4.5312,27.5508,3.4766-27.6558h6.4267l-5.9531,42.6689h-6.3213l-4.7412-28.604-4.6885,28.604Z" transform="translate(0 0)"/><path class="cls-4" d="M1901.2646,385.3555a10.7753,10.7753,0,0,1-5.5839-1.2906,7.6493,7.6493,0,0,1-3.1866-3.7929,15.8524,15.8524,0,0,1-1.0273-6.0318v-9.166a15.9713,15.9713,0,0,1,1.0273-6.11,7.4888,7.4888,0,0,1,3.2129-3.74,10.9845,10.9845,0,0,1,5.5576-1.2641,10.04,10.04,0,0,1,5.6631,1.37,7.4706,7.4706,0,0,1,2.8965,3.9771,20.2081,20.2081,0,0,1,.87,6.3476v4.32h-12.1162v6.0054a8.4132,8.4132,0,0,0,.29,2.4229,2.41,2.41,0,0,0,.9218,1.37,2.6814,2.6814,0,0,0,1.5274.4214,2.4293,2.4293,0,0,0,1.5273-.4478,2.5317,2.5317,0,0,0,.8428-1.3169,7.6562,7.6562,0,0,0,.2637-2.186v-2.5288h6.69v2.0547q0,4.6362-2.3184,7.1113Q1906.0044,385.3565,1901.2646,385.3555Zm-2.6865-18.9117h5.3731v-2.8969a10.0845,10.0845,0,0,0-.2637-2.5552,2.5811,2.5811,0,0,0-.8428-1.4219,2.62,2.62,0,0,0-1.6328-.4477,2.336,2.336,0,0,0-1.5273.4736,2.81,2.81,0,0,0-.8428,1.5806,14.3915,14.3915,0,0,0-.2637,3.1606Z" transform="translate(0 0)"/><path class="cls-4" d="M1928.6572,385.3555a6.5868,6.5868,0,0,1-3.1611-.79,13.4076,13.4076,0,0,1-2.7393-1.9492v2.2651h-7.164V342.2124h7.164v14.5391a11.4076,11.4076,0,0,1,2.8711-2.0284,7.4829,7.4829,0,0,1,3.3448-.7636,5.6316,5.6316,0,0,1,3.372.9482,6.4144,6.4144,0,0,1,2.0537,2.502,12.4092,12.4092,0,0,1,1.0274,3.3188,21.0767,21.0767,0,0,1,.29,3.398v10.3247a19.8269,19.8269,0,0,1-.7109,5.4785,8.58,8.58,0,0,1-2.2656,3.9507A5.6829,5.6829,0,0,1,1928.6572,385.3555Zm-2.7392-5.0044a1.9733,1.9733,0,0,0,1.7119-.7637,4.5887,4.5887,0,0,0,.7373-2.0547,19.9638,19.9638,0,0,0,.1846-2.8183V363.81a14.1107,14.1107,0,0,0-.211-2.5547,4.0221,4.0221,0,0,0-.7637-1.8174,2.0732,2.0732,0,0,0-1.7119-.6851,3.6166,3.6166,0,0,0-1.6338.395,12.0653,12.0653,0,0,0-1.4746.87v19.227a7.15,7.15,0,0,0,1.501.7906A4.5728,4.5728,0,0,0,1925.918,380.3511Z" transform="translate(0 0)"/><path class="cls-4" d="M1940.7725,384.8813V342.2124h7.164v15.1182a12.5309,12.5309,0,0,1,3.45-2.4756,9.3313,9.3313,0,0,1,4.083-.8955,4.4656,4.4656,0,0,1,2.95.9218,5.4,5.4,0,0,1,1.6328,2.4493,10.1384,10.1384,0,0,1,.5264,3.3188v24.2319h-7.1641v-22.81a4.2987,4.2987,0,0,0-.4218-2.107,1.7158,1.7158,0,0,0-1.6328-.7377,4.0625,4.0625,0,0,0-1.6592.4213,8.2358,8.2358,0,0,0-1.7647,1.1065v24.1264Z" transform="translate(0 0)"/><path class="cls-4" d="M1975.0654,385.3555a10.9083,10.9083,0,0,1-5.4785-1.2378,7.7256,7.7256,0,0,1-3.24-3.6084,13.7955,13.7955,0,0,1-1.0791-5.7422V364.5479a13.7981,13.7981,0,0,1,1.0791-5.7422,7.73,7.73,0,0,1,3.24-3.6084,10.9083,10.9083,0,0,1,5.4785-1.2378,11.0646,11.0646,0,0,1,5.5049,1.2378,7.6946,7.6946,0,0,1,3.2656,3.6084,13.796,13.796,0,0,1,1.08,5.7422v10.2192a13.7934,13.7934,0,0,1-1.08,5.7422,7.69,7.69,0,0,1-3.2656,3.6084A11.0646,11.0646,0,0,1,1975.0654,385.3555Zm.0528-4.9517a2.2161,2.2161,0,0,0,1.791-.685,3.5654,3.5654,0,0,0,.7373-1.87,19.7809,19.7809,0,0,0,.1582-2.6074V364.0737a19.1936,19.1936,0,0,0-.1582-2.5815,3.6956,3.6956,0,0,0-.7373-1.87,2.6114,2.6114,0,0,0-3.5821,0,3.8541,3.8541,0,0,0-.7636,1.87,16.3823,16.3823,0,0,0-.1846,2.5815v11.1675a16.8814,16.8814,0,0,0,.1846,2.6074,3.71,3.71,0,0,0,.7636,1.87A2.2138,2.2138,0,0,0,1975.1182,380.4038Z" transform="translate(0 0)"/><path class="cls-4" d="M1998.085,385.3555a9.566,9.566,0,0,1-6.3213-2.0547,11.3124,11.3124,0,0,1-3.5293-6.0049l5.32-2.0547a10.0315,10.0315,0,0,0,1.6855,3.793,3.3442,3.3442,0,0,0,2.7393,1.3169,2.5773,2.5773,0,0,0,1.8965-.6323,2.35,2.35,0,0,0,.6318-1.7383,3.7513,3.7513,0,0,0-.7637-2.2915,16.4675,16.4675,0,0,0-2.6074-2.5547l-3.6875-3.1079a18.7092,18.7092,0,0,1-3.2392-3.5562,7.906,7.906,0,0,1-1.2383-4.5566,7.37,7.37,0,0,1,4.24-6.9795,9.8113,9.8113,0,0,1,4.3985-.9746,8.1231,8.1231,0,0,1,5.9267,2.186,10.2827,10.2827,0,0,1,2.8711,5.7158l-4.6885,2.0015a10.84,10.84,0,0,0-.7636-2.3442,5.1777,5.1777,0,0,0-1.2911-1.7647,2.73,2.73,0,0,0-1.8437-.6846,2.3357,2.3357,0,0,0-1.7647.6846,2.4051,2.4051,0,0,0-.6582,1.7383,2.9651,2.9651,0,0,0,.7637,1.8437,16.94,16.94,0,0,0,2.1865,2.16l3.74,3.3711a28.44,28.44,0,0,1,2.3173,2.2651,11.5921,11.5921,0,0,1,1.8438,2.7129,7.7389,7.7389,0,0,1,.7373,3.4507,7.8368,7.8368,0,0,1-1.1855,4.4248,7.4692,7.4692,0,0,1-3.2129,2.7129A10.7656,10.7656,0,0,1,1998.085,385.3555Z" transform="translate(0 0)"/><path class="cls-4" d="M2019.6826,385.25a9.2142,9.2142,0,0,1-4.5566-.9482,5.2042,5.2042,0,0,1-2.3438-2.7393,11.9324,11.9324,0,0,1-.6845-4.2666V359.1743h-3.0557v-4.7407h3.0557V345.32h7.2168v9.1133h4.6357v4.7407h-4.6357v17.4893a3.0187,3.0187,0,0,0,.6845,2.2387,2.8558,2.8558,0,0,0,2.0547.6587q.5787,0,1.1328-.0527.5523-.0521,1.0791-.1055v5.4785q-.8964.1048-2.08.2369A22.8014,22.8014,0,0,1,2019.6826,385.25Z" transform="translate(0 0)"/><g class="cls-16"><circle class="cls-4" cx="3104.6964" cy="1745.6071" r="5.6071"/><circle class="cls-4" cx="3145.0679" cy="1745.6071" r="5.6071"/><circle class="cls-4" cx="3186.5607" cy="1745.6071" r="5.6071"/><circle class="cls-4" cx="3225.8107" cy="1745.6071" r="5.6071"/><circle class="cls-4" cx="3267.3036" cy="1745.6071" r="5.6071"/><circle class="cls-4" cx="3104.6964" cy="1780.3714" r="5.6071"/><circle class="cls-4" cx="3145.0679" cy="1780.3714" r="5.6071"/><circle class="cls-4" cx="3186.5607" cy="1780.3714" r="5.6071"/><circle class="cls-4" cx="3225.8107" cy="1780.3714" r="5.6071"/><circle class="cls-4" cx="3267.3036" cy="1780.3714" r="5.6071"/><circle class="cls-4" cx="3104.6964" cy="1817.3786" r="5.6071"/><circle class="cls-4" cx="3145.0679" cy="1817.3786" r="5.6071"/><circle class="cls-4" cx="3186.5607" cy="1817.3786" r="5.6071"/><circle class="cls-4" cx="3225.8107" cy="1817.3786" r="5.6071"/><circle class="cls-4" cx="3267.3036" cy="1817.3786" r="5.6071"/><circle class="cls-4" cx="3104.6964" cy="1854.3857" r="5.6071"/><circle class="cls-4" cx="3145.0679" cy="1854.3857" r="5.6071"/><circle class="cls-4" cx="3186.5607" cy="1854.3857" r="5.6071"/><circle class="cls-4" cx="3225.8107" cy="1854.3857" r="5.6071"/><circle class="cls-4" cx="3267.3036" cy="1854.3857" r="5.6071"/><circle class="cls-4" cx="3104.6964" cy="1891.3929" r="5.6071"/><circle class="cls-4" cx="3145.0679" cy="1891.3929" r="5.6071"/><circle class="cls-4" cx="3186.5607" cy="1891.3929" r="5.6071"/><circle class="cls-4" cx="3225.8107" cy="1891.3929" r="5.6071"/><circle class="cls-4" cx="3267.3036" cy="1891.3929" r="5.6071"/></g><circle class="cls-17" cx="821.6279" cy="720.0954" r="7.8658"/><circle class="cls-18" cx="800.6538" cy="726.8156" r="7.8658"/><circle class="cls-19" cx="779.6798" cy="733.5358" r="7.8658"/></g><g id="roboter"><polyline class="cls-20" points="330.628 1263.918 330.628 1276.685 502.984 1271.011 492.345 1217.814"/><polyline class="cls-20" points="502.984 1271.011 503.694 1280.586 474.613 1282.005 474.613 1277.04 360.418 1282.005 360.418 1286.26 330.628 1286.97 330.628 1277.04"/><path class="cls-20" d="M373.185,1183.0594a1.2391,1.2391,0,0,1-.24.7072c-1.1146,1.62-5.9821,2.8392-11.8181,2.8392-6.6593,0-12.0578-1.5878-12.0578-3.5464s5.3985-3.5465,12.0578-3.5465S373.185,1181.1007,373.185,1183.0594Z" transform="translate(0 0)"/><line class="cls-20" x1="373.185" y1="1190.8615" x2="373.185" y2="1183.7687"/><line class="cls-20" x1="365.3829" y1="1193.6987" x2="365.3829" y2="1186.6058"/><line class="cls-20" x1="354.7436" y1="1192.9894" x2="354.7436" y2="1186.0652"/><line class="cls-20" x1="349.0693" y1="1189.443" x2="349.0693" y2="1183.0594"/><line class="cls-20" x1="352.6157" y1="1172.4201" x2="352.6157" y2="1179.5129"/><line class="cls-20" x1="361.1271" y1="1173.1294" x2="361.1271" y2="1179.5129"/><line class="cls-20" x1="361.8364" y1="1150.4322" x2="361.8364" y2="1157.5251"/><line class="cls-20" x1="352.6157" y1="1157.5251" x2="352.6157" y2="1150.4322"/><polyline class="cls-20" points="598.383 746.849 515.042 746.849 512.914 751.104 473.194 809.266 470.357 815.649"/><polyline class="cls-20" points="501.566 738.337 505.821 744.011 515.042 746.849"/><polyline class="cls-20" points="498.019 741.884 501.566 746.849 502.729 747.248 512.914 751.104"/><polyline class="cls-20" points="463.53 804.62 466.101 798.626 501.566 746.849"/><polyline class="cls-20" points="489.863 797.208 480.347 798.792 467.951 796.03 464.705 787.858"/><polyline class="cls-20" points="498.019 838.346 477.45 815.649 466.101 798.626 462.555 791.534"/><polyline class="cls-20" points="609.377 843.311 651.934 780.185 648.388 773.092 620.016 758.197 488.089 797.208 477.45 815.649 471.986 817.518"/><polyline class="cls-20" points="609.377 843.311 606.54 848.276 602.994 845.439 644.841 778.057 600.156 751.104 520.007 751.814 488.089 797.208"/><polyline class="cls-20" points="606.54 848.276 706.549 903.601 753.362 924.17"/><circle class="cls-20" cx="657.9633" cy="755.7146" r="8.8661"/><circle class="cls-20" cx="649.4519" cy="750.7496" r="8.8661"/><polyline class="cls-20" points="654.062 743.302 660.268 746.849 661.155 744.011 712.933 773.801 708.677 778.766 710.805 780.185 701.269 795.08"/><line class="cls-20" x1="708.6772" y1="778.7664" x2="666.1201" y2="752.5229"/><line class="cls-20" x1="676.1015" y1="752.6108" x2="663.2351" y2="771.8165"/><path class="cls-8" d="M762.5829,826.9979c33.3365,19.86,68.0915,42.5571,65.2543,65.2543s-14.1857,56.0336-27.6621,63.8357c-6.3836,4.2557-8.5114,4.2557-8.5114,4.2557l-9.93,48.9407-18.4415,18.4415,1.4186,3.5464-1.4186,9.93H742.0137l-9.93-10.6393,1.4185-10.6393h2.8372l7.8021-61.7078-7.0928-5.6743.7092-9.2207-5.6742-4.2558.7092-12.7671-.7092-2.1279.4993-9.13" transform="translate(0 0)"/><path class="cls-7" d="M709.3865,782.4008" transform="translate(0 0)"/><polyline class="cls-20" points="649.865 783.254 747.688 840.474 755.49 829.835 709.387 800.045 636.33 755.36 632.074 761.744 586.68 735.5 504.403 735.5 498.019 741.884 462.555 790.824 461.136 800.754 470.357 815.649 494.473 843.311"/><path class="cls-20" d="M748.3972,823.4514a4.2949,4.2949,0,0,1,1.4186.7093c8.0351,4.9534,42.009,26.6693,63.1264,49.65,24.1158,26.2436-18.4414,80.8586-24.1157,82.9865s-21.9878-1.4186-21.9878-1.4186" transform="translate(0 0)"/><path class="cls-20" d="M761.1644,962.4715c1.4185-2.1279,0-17.0229,0-17.0229s-53.1965-148.95-53.1965-150.3686c0,0,7.0929-6.3836,22.6972,7.0929" transform="translate(0 0)"/><path class="cls-20" d="M712.9329,796.4986c0,1.4186,53.1965,150.3686,53.1965,150.3686s2.1278,13.4764.7093,15.6043" transform="translate(0 0)"/><polyline class="cls-20" points="754.781 963.89 748.397 1031.272 743.432 1031.272 733.502 1019.924"/><path class="cls-7" d="M706.5494,786.5686s67.3821,34.0457,60.9985,39.0107c-2.8371,2.1279-7.8021-.7093-7.8021-.7093" transform="translate(0 0)"/><polyline class="cls-20" points="779.606 957.506 773.932 1005.029 762.967 1015.966"/><polyline class="cls-20" points="785.28 957.506 777.478 1009.284 762.05 1024.14"/><path class="cls-20" d="M794.1462,963.1808H800.36a.7469.7469,0,0,0,.6827-.4269c.3347-.7327,1.2663-2.0529,3.3886-.9917,2.1089,1.0544,1.4746,5.244.1361,7.3253a1.588,1.588,0,0,1-2.85-.293l-.0081-.025a.9219.9219,0,0,0-.8851-.6237h-7.3864" transform="translate(0 0)"/><path class="cls-20" d="M791.4564,961.365s3.0444.3972,3.0444,3.2343-.7093,4.965-4.2557,4.2557" transform="translate(0 0)"/><path class="cls-20" d="M787.0533,997.9358h6.2134a.7467.7467,0,0,0,.6826-.4269c.3347-.7326,1.2663-2.0529,3.3887-.9917,2.1088,1.0544,1.4745,5.244.136,7.3253a1.588,1.588,0,0,1-2.85-.293l-.0081-.025a.9219.9219,0,0,0-.8851-.6237H786.344" transform="translate(0 0)"/><path class="cls-20" d="M784.3636,996.12s3.0444.3972,3.0444,3.2343-.7093,4.965-4.2558,4.2558" transform="translate(0 0)"/><path class="cls-20" d="M787.7626,979.4943h9.26a2.3564,2.3564,0,0,1,1.9526,1.0367,3.0257,3.0257,0,0,1-.37,4.1343,1.6817,1.6817,0,0,1-1.2158.5012c-4.852-.03-10.6856-.3756-10.6856-.3756" transform="translate(0 0)"/><ellipse class="cls-20" cx="776.0594" cy="896.1532" rx="32.6271" ry="32.2725"/><circle class="cls-20" cx="776.414" cy="896.8625" r="25.1796"/><line class="cls-21" x1="733.5022" y1="878.0665" x2="724.9908" y2="870.9736"/><line class="cls-20" x1="651.9344" y1="780.185" x2="716.4004" y2="819.5157"/><circle class="cls-22" cx="662.9283" cy="780.5397" r="3.1918"/><circle class="cls-22" cx="679.2419" cy="789.7604" r="3.1918"/><circle class="cls-22" cx="703.3576" cy="804.6554" r="3.1918"/><circle class="cls-22" cx="744.4962" cy="830.8989" r="3.1918"/><ellipse class="cls-20" cx="357.2261" cy="1172.7747" rx="4.6104" ry="2.4825"/><ellipse class="cls-20" cx="357.2261" cy="1150.7869" rx="4.6104" ry="2.4825"/><path class="cls-20" d="M732.7929,926.2979s22.6972,14.895,55.3243,3.5464a8.4491,8.4491,0,0,0,1.4186-4.2557" transform="translate(0 0)"/><path class="cls-20" d="M787.408,929.8443l-.7093,14.895s-13.4765,9.2207-48.9408-1.4185" transform="translate(0 0)"/><polyline class="cls-20" points="744.142 959.723 747.688 962.471 768.967 962.471 760.455 1038.365 746.979 1038.365 746.979 1031.272"/><polyline class="cls-20" points="747.688 962.471 748.397 951.832 737.758 943.321"/><polyline class="cls-20" points="774.641 948.286 777.478 951.832 748.397 952.275"/><polyline class="cls-20" points="777.478 951.832 776.769 962.471 768.021 962.471"/><polyline class="cls-20" points="620.016 758.197 598.383 746.849 586.68 735.5"/><line class="cls-20" x1="644.8415" y1="778.0572" x2="648.3879" y2="773.0922"/><ellipse class="cls-20" cx="357.2261" cy="1157.1704" rx="4.6104" ry="2.4825"/><path class="cls-7" d="M708.6772,783.0222s70.2193,38.3014,63.8357,43.2664c-2.1278,4.965-12.7671-1.4186-12.7671-1.4186" transform="translate(0 0)"/><line class="cls-20" x1="732.0837" y1="800.045" x2="724.5016" y2="809.8117"/><path class="cls-20" d="M712.9329,796.4986s5.6743-2.8372,16.3136,7.0928" transform="translate(0 0)"/><rect class="cls-20" x="727.8279" y="812.8122" width="34.755" height="4.965" transform="translate(555.9968 -272.9317) rotate(32.565)"/><line class="cls-20" x1="726.0267" y1="807.8472" x2="749.8158" y2="824.1607"/><path class="cls-20" d="M467.52,1000.7729l44.781-172.8265a14.627,14.627,0,0,1,2.3625-4.9863c4.1369-5.6415,15.6117-18.3474,34.4244-17.2408,24.1157,1.4186,27.6622,31.2086,27.6622,31.2086L546.2508,999.3543l-33.3365,7.8022-17.7321-2.8372-14.1857,1.4186-13.4765-4.965-9.93,2.1279-2.8371-12.7672L443.4043,1043.33l-4.965-29.0808,5.3311-20.3551,2.4711-9.4349,4.2557-19.1507-2.8372-9.93,29.79-131.2179" transform="translate(0 0)"/><polyline class="cls-20" points="583.134 832.672 553.344 1002.901 512.914 1011.412 495.182 1009.284 482.415 1011.412 466.101 1007.156 457.59 1002.901"/><line class="cls-20" x1="457.2354" y1="1001.3049" x2="501.5924" y2="830.9256"/><path class="cls-20" d="M571.0758,806.4286" transform="translate(0 0)"/><polyline class="cls-20" points="445.532 987.296 434.893 1007.866 437.021 1025.598 440.567 1051.841"/><line class="cls-20" x1="546.2508" y1="1005.7379" x2="538.4486" y2="1045.4579"/><line class="cls-20" x1="534.9022" y1="1007.8658" x2="530.6465" y2="1030.5629"/><path class="cls-20" d="M500.8565,819.1957c-14.7316,56.9078-30.4993,121.9972-30.4993,121.9972s-8.5115,1.4186-9.93-22.6971V906.4379l18.4414-80.8586" transform="translate(0 0)"/><path class="cls-20" d="M571.0758,806.4286" transform="translate(0 0)"/><path class="cls-20" d="M501.5658,831.2536c7.0928-21.9879,18.81-37.5922,41.1385-37.5922s40.4293,17.3916,40.4293,39.72" transform="translate(0 0)"/><path class="cls-20" d="M500.1472,821.3236c7.0928-21.9879,18.81-37.5922,41.1386-37.5922s40.4293,17.3916,40.4293,39.72" transform="translate(0 0)"/><path class="cls-20" d="M483.8336,1174.5479l-85.5392,3.0639-11.633-10.866v-30.4993l69.51-92.9164s31.9178-31.2086,65.2543-11.3486,19.86,54.615,19.86,54.615Z" transform="translate(0 0)"/><path class="cls-20" d="M534.9022,1085.8872l-54.615,85.8236-79.44,2.1279-7.0929-6.3836,1.4186-26.2436,69.51-90.0793s19.86-24.825,53.1964-10.6393S534.9022,1085.8872,534.9022,1085.8872Z" transform="translate(0 0)"/><path class="cls-20" d="M543.9792,1075.13s4.3994-31.8-26.1-53.0782-63.1264,10.6393-63.1264,10.6393L431.46,1064.189l-39.1244,52.9068-2.1278-52.4872,55.3243-78.0214-2.1279-7.0929-59.58,84.4051,2.8371,72.3471" transform="translate(0 0)"/><path class="cls-20" d="M425.6722,1070.2829c-19.86-.7093-34.0458,12.0579-34.0458,12.0579l-12.0578,8.5114-3.5464,10.6393-8.5115,42.5572" transform="translate(0 0)"/><path class="cls-20" d="M385.75,1112.9975a10.8233,10.8233,0,0,1-6.8657-4.5683,17.479,17.479,0,0,1-2.8618-6.9377" transform="translate(0 0)"/><line class="cls-20" x1="391.438" y1="1094.9526" x2="378.8593" y2="1108.5844"/><line class="cls-20" x1="391.1415" y1="1087.637" x2="376.5718" y2="1099.8424"/><line class="cls-20" x1="403.8757" y1="1101.4906" x2="392.3357" y2="1095.1079"/><path class="cls-20" d="M328.8546,1193.344l1.7733,71.2833,69.8646,3.1917s70.2193,15.6043,90.7886-22.6971c2.8371-44.685,1.4186-85.8236,1.4186-85.8236s-50.714,47.8768-121.6425,6.0289c-8.5115-12.7671-3.5465-21.2785-3.5465-21.2785l-36.5282,3.901Z" transform="translate(0 0)"/><polyline class="cls-20" points="401.718 1268.071 400.138 1190.862 328.5 1192.989"/><path class="cls-20" d="M367.66,1158.8623s-5.8238,19.2321,32.4777,31.9992" transform="translate(0 0)"/><g id="roboter_dashed"><g class="cls-23"><polyline class="cls-24" points="332.046 1258.244 333.465 1202.21 488.089 1196.536 492.345 1217.814"/><path class="cls-24" d="M334.1743,1223.4887h26.2436v-17.7322l101.4278-2.8371,2.1279,16.3136h27.6621" transform="translate(0 0)"/><line class="cls-24" x1="491.6357" y1="1214.6226" x2="463.499" y2="1215.5942"/><line class="cls-24" x1="488.0893" y1="1205.7565" x2="462.3866" y2="1207.066"/><polyline class="cls-24" points="499.438 1260.372 471.066 1261.79 471.687 1266.134 472.485 1271.72"/><line class="cls-24" x1="499.4379" y1="1264.6273" x2="472.485" y2="1266.0458"/><line class="cls-24" x1="359.7086" y1="1269.5923" x2="332.0464" y2="1271.7201"/><line class="cls-24" x1="359.7086" y1="1266.0458" x2="332.0464" y2="1266.7551"/><line class="cls-24" x1="332.0464" y1="1153.2694" x2="333.465" y2="1202.2101"/><line class="cls-24" x1="334.1743" y1="1219.9422" x2="359.7086" y2="1219.233"/><path class="cls-24" d="M334.1743,1212.8494l65.9636-7.0929s63.1264-23.4064,91.4978,22.6972" transform="translate(0 0)"/><polyline class="cls-24" points="483.834 1173.129 467.52 1100.073 392.336 1101.768"/><polyline class="cls-24" points="490.926 1147.595 478.159 1080.922 460.601 1063.402"/><path class="cls-24" d="M493.7636,1142.63l-9.2207-47.5222s9.2207,22.6972-43.2664,29.0808c-48.9408-3.5465-54.6151-9.93-54.6151-9.93" transform="translate(0 0)"/><path class="cls-24" d="M426.9747,1070.2544s20.6853-4.2272,41.9639,12.0864c3.5464,19.1507-14.1857,24.825-41.8479,24.825-23.4064-3.5464-21.9878-5.3973-21.9878-5.3973" transform="translate(0 0)"/><path class="cls-24" d="M493.0543,1156.8158v-12.7671S477.45,1117.0958,427.8,1119.9329s-58.8707,22.6972-58.8707,22.6972" transform="translate(0 0)"/><polyline class="cls-24" points="398.01 1205.047 398.01 1134.828 368.929 1144.049"/><path class="cls-24" d="M490.9265,1149.0137l47.5221-77.3122s-7.8021,26.2436-43.9757,31.2086-58.5161-26.86-48.4088-58.47" transform="translate(0 0)"/><path class="cls-24" d="M443.4043,979.4943s60.2893-47.5221,80.1493,24.825" transform="translate(0 0)"/><path class="cls-24" d="M447.66,985.8779s36.3576-34.9734,69.602,1.664" transform="translate(0 0)"/><path class="cls-24" d="M396.5914,1093.6894l67.3822-2.1279,48.9407-78.7307s2.1279-26.2436-8.5114-33.3365" transform="translate(0 0)"/><path class="cls-24" d="M470.3572,1097.9451l48.2314-80.1493s5.1643-19.037-3.8014-34.6982" transform="translate(0 0)"/><line class="cls-24" x1="480.9965" y1="1090.1429" x2="523.5536" y2="1019.9236"/><polyline class="cls-24" points="534.902 1058.934 523.554 1060.353 458.299 1051.841 443.404 1044.749 437.73 1017.086 449.788 1014.249 510.077 1019.924 523.554 1029.144 533.484 1049.004"/><path class="cls-24" d="M576.75,838.3464c0,23.112-15.1895,36.8829-38.3015,36.8829s-34.755-14.895-40.4293-35.4643" transform="translate(0 0)"/><path class="cls-24" d="M576.75,835.5093c0,23.1119-15.1895,36.8829-38.3015,36.8829s-34.755-14.895-40.4293-35.4643" transform="translate(0 0)"/><path class="cls-24" d="M561.1458,809.975c0,23.112-15.1895,36.8829-38.3015,36.8829s-34.755-14.895-40.4293-35.4643" transform="translate(0 0)"/><path class="cls-24" d="M561.1458,807.1379c0-23.112-15.1895-36.8829-38.3015-36.8829s-34.755,14.895-40.4293,35.4643" transform="translate(0 0)"/><path class="cls-24" d="M561.1458,809.2657c0-23.1119-15.1895-36.8828-38.3015-36.8828s-34.755,14.895-40.4293,35.4643" transform="translate(0 0)"/><path class="cls-24" d="M549.0879,809.2657c0-23.1119-5.9688-31.9178-29.0807-31.9178s-26.2436,14.895-31.9179,35.4643" transform="translate(0 0)"/><polyline class="cls-24" points="549.088 811.394 525.681 947.576 495.891 954.669 482.415 952.541 470.357 954.669 454.753 948.995 485.973 821.62"/><path class="cls-24" d="M525.6815,1021.3422c0-1.4186,9.2207-57.4522,9.2207-57.4522l-9.2207-15.6042" transform="translate(0 0)"/><polyline class="cls-24" points="515.042 1004.319 522.135 968.855 522.135 961.762 501.566 966.727"/><polyline class="cls-24" points="449.788 955.379 466.101 961.762 480.996 961.762 494.473 963.89 531.356 955.379 534.902 963.003"/><line class="cls-24" x1="532.7743" y1="954.6693" x2="553.308" y2="834.2388"/><line class="cls-24" x1="557.5993" y1="829.835" x2="542.7043" y2="907.8565"/><polyline class="cls-24" points="507.949 848.276 555.471 856.788 557.599 860.334 581.715 840.474"/><line class="cls-24" x1="556.89" y1="855.3693" x2="581.7151" y2="835.5093"/><line class="cls-24" x1="573.9129" y1="819.905" x2="548.3786" y2="841.8929"/><polyline class="cls-24" points="575.331 805.719 541.286 834.091 495.182 826.998 470.357 798.626"/><polyline class="cls-24" points="473.904 939.774 544.832 931.972 532.774 914.949 527.1 897.217 483.124 903.601"/><path class="cls-24" d="M505.8215,738.3371c.7093-.7092,79.44-1.4185,79.44-1.4185" transform="translate(0 0)"/><polyline class="cls-24" points="583.134 737.628 622.144 761.034 590.226 813.521 576.75 805.719"/><polyline class="cls-24" points="590.226 815.649 585.971 826.289 575.331 819.905 575.331 807.138"/><line class="cls-24" x1="441.2765" y1="1108.5844" x2="443.4043" y2="1122.7701"/><polyline class="cls-24" points="400.847 1117.096 470.357 1115.677 488.799 1136.247"/><path class="cls-24" d="M485.9615,1131.9908l-7.0929-39.72s-21.2786-26.2436-65.9636-14.895c-22.6971,7.0928-20.5693,3.5464-20.5693,3.5464" transform="translate(0 0)"/><ellipse class="cls-24" cx="614.3422" cy="800.045" rx="32.6271" ry="9.2207" transform="translate(-390.5592 887.5757) rotate(-57.458)"/><ellipse class="cls-24" cx="617.1793" cy="802.1729" rx="32.6271" ry="9.2207" transform="translate(-391.0419 890.9507) rotate(-57.458)"/><line class="cls-24" x1="637.0393" y1="770.255" x2="601.2102" y2="827.3122"/><polyline class="cls-24" points="590.936 829.835 687.399 883.031 739.886 906.438"/><polyline class="cls-24" points="593.064 826.289 695.201 883.031 734.921 900.764"/><path class="cls-24" d="M753.3622,823.4514s40.4293,24.1158,64.545,50.3593-18.4414,80.8586-24.1157,82.9865-21.9878-1.4186-21.9878-1.4186" transform="translate(0 0)"/><ellipse class="cls-24" cx="766.1294" cy="888.3511" rx="32.6271" ry="32.2725"/><ellipse class="cls-24" cx="774.6408" cy="896.1532" rx="32.6271" ry="32.2725"/><ellipse class="cls-24" cx="759.3912" cy="881.9675" rx="23.0518" ry="23.7611"/><polyline class="cls-24" points="751.234 838.346 749.816 873.101 742.014 885.869 707.968 903.601"/><line class="cls-24" x1="731.3744" y1="824.1607" x2="731.3744" y2="847.5672"/><polyline class="cls-24" points="731.374 862.639 724.991 870.974 691.654 887.996"/><line class="cls-24" x1="654.7715" y1="775.22" x2="712.9329" y2="812.1029"/><line class="cls-24" x1="654.0622" y1="778.7664" x2="714.3515" y2="815.6493"/><polyline class="cls-24" points="756.909 965.309 751.234 1026.307 736.339 1027.726 737.049 1019.924"/><polyline class="cls-24" points="774.641 1008.575 757.618 1027.726 754.781 1024.889 754.781 1019.214 738.467 1019.924"/><polyline class="cls-24" points="763.292 1039.784 754.072 1029.854 734.212 1029.854"/><line class="cls-24" x1="791.1317" y1="904.31" x2="772.5129" y2="891.8975"/><line class="cls-24" x1="797.9229" y1="895.6153" x2="776.7687" y2="883.0315"/><polyline class="cls-24" points="798.047 874.52 774.641 905.729 785.146 914.572"/><polyline class="cls-24" points="467.52 1100.073 460.427 1062.481 432.765 1063.899"/><line class="cls-24" x1="425.6722" y1="1108.5844" x2="424.2536" y2="1119.9329"/><line class="cls-24" x1="454.7529" y1="1103.6194" x2="462.555" y2="1118.5144"/><line class="cls-24" x1="463.9736" y1="1099.3636" x2="473.9036" y2="1112.8401"/><line class="cls-24" x1="469.6479" y1="1093.6894" x2="482.415" y2="1103.6194"/></g><ellipse class="cls-25" cx="691.8495" cy="778.5538" rx="5.9291" ry="2.6035" transform="translate(-286.2576 1136.4758) rotate(-68.4739)"/><ellipse class="cls-25" cx="696.8145" cy="781.3909" rx="5.9291" ry="2.6035" transform="translate(-285.7537 1142.8906) rotate(-68.4739)"/><ellipse class="cls-25" cx="701.0702" cy="784.2281" rx="5.9291" ry="2.6035" transform="translate(-285.6987 1148.6456) rotate(-68.4739)"/><ellipse class="cls-25" cx="704.6167" cy="786.3559" rx="5.9291" ry="2.6035" transform="translate(-285.433 1153.2918) rotate(-68.4739)"/><ellipse class="cls-25" cx="755.8447" cy="877.0025" rx="23.0518" ry="23.7611"/><line class="cls-25" x1="659.0272" y1="746.1393" x2="649.0972" y2="762.4529"/><line class="cls-25" x1="696.6194" y1="764.5807" x2="684.5615" y2="784.4407"/><line class="cls-25" x1="776.0594" y1="861.0436" x2="751.2344" y2="897.9265"/><ellipse class="cls-25" cx="760.1004" cy="938.3558" rx="23.7611" ry="7.0929"/><ellipse class="cls-25" cx="760.1004" cy="938.3558" rx="11.8805" ry="3.5464"/><ellipse class="cls-25" cx="761.519" cy="938.3558" rx="18.7961" ry="5.6108"/></g></g></svg>